<?xml version="1.0" encoding="iso-8859-1"?>
<!-- Generator: Adobe Illustrator 17.1.0, SVG Export Plug-In . SVG Version: 6.00 Build 0)  -->
<!DOCTYPE svg PUBLIC "-//W3C//DTD SVG 1.1//EN" "http://www.w3.org/Graphics/SVG/1.1/DTD/svg11.dtd">
<svg version="1.1" id="Capa_1" xmlns="http://www.w3.org/2000/svg" xmlns:xlink="http://www.w3.org/1999/xlink" x="0px" y="0px"
	 viewBox="0 0 503.903 503.903" style="enable-background:new 0 0 503.903 503.903;" xml:space="preserve">
<g>
	<path d="M452.143,350.31c-19.719-1.128-38.368,8.396-49.075,24.639c0.644-2.428,1.366-4.835,2.164-7.219
		c0.549-1.64,1.792-3.02,3.501-3.887c19.494-9.894,31.281-30.386,30.03-52.206c-1.598-27.867-24.708-50.577-52.612-51.703
		c-15.126-0.611-29.45,4.815-40.341,15.275c-10.896,10.465-16.896,24.546-16.896,39.65c0,20.816,11.568,39.598,30.19,49.017
		c1.663,0.842,2.877,2.193,3.417,3.806c0.804,2.399,1.531,4.823,2.179,7.266c-10.707-16.241-29.363-25.769-49.074-24.638
		c-27.868,1.598-50.578,24.709-51.703,52.613c-0.609,15.123,4.816,29.45,15.276,40.34c10.465,10.896,24.546,16.896,39.649,16.896
		c18.691,0,35.769-9.347,45.873-24.753c-5.029,18.964-14.77,36.613-28.344,51.009c-2.19,2.323-2.79,5.726-1.524,8.658
		s4.152,4.831,7.345,4.831h12.781h57.81h12.781c3.193,0,6.08-1.899,7.345-4.831s0.666-6.334-1.524-8.658
		c-13.574-14.396-23.314-32.046-28.344-51.009c10.104,15.406,27.183,24.753,45.874,24.753c15.103,0,29.184-6,39.649-16.896
		c10.46-10.891,15.885-25.217,15.275-40.34C502.721,375.019,480.01,351.908,452.143,350.31z M344.913,314.86
		c0-10.708,4.254-20.691,11.979-28.11c7.328-7.039,16.855-10.861,26.982-10.861c0.542,0,1.086,0.011,1.631,0.033
		c19.774,0.798,36.151,16.889,37.283,36.632c0.887,15.474-7.472,30.005-21.297,37.022c-5.48,2.781-9.54,7.424-11.433,13.075
		c-3.069,9.169-5.144,18.664-6.175,28.249c-1.033-9.602-3.114-19.114-6.193-28.302c-1.887-5.628-5.923-10.245-11.366-12.998
		C353.118,342.919,344.913,329.607,344.913,314.86z M408.609,483.904h-49.451c13.633-18.896,22.252-41.191,24.725-64.381
		C386.357,442.713,394.976,465.007,408.609,483.904z M477.031,432.179c-7.42,7.725-17.403,11.979-28.11,11.979
		c-14.688,0-27.976-8.156-34.676-21.286c-2.833-5.553-7.523-9.646-13.205-11.524c-2.347-0.775-4.794-1.512-7.273-2.188
		c-0.695-0.189-1.402-0.282-2.105-0.282c-1.858,0-3.684,0.648-5.142,1.871c-1.328,1.114-2.239,2.61-2.635,4.251
		c-0.396-1.641-1.307-3.137-2.635-4.251c-2.01-1.686-4.718-2.279-7.248-1.589c-2.48,0.677-4.927,1.413-7.274,2.189
		c-5.68,1.878-10.37,5.971-13.204,11.524c-6.701,13.13-19.988,21.286-34.676,21.286c-10.707,0-20.69-4.254-28.11-11.979
		c-7.415-7.72-11.261-17.881-10.828-28.612c0.797-19.774,16.888-36.152,36.632-37.284c15.441-0.884,29.961,7.449,36.99,21.233
		c2.824,5.541,7.5,9.625,13.165,11.5c2.354,0.779,4.811,1.519,7.302,2.199c2.534,0.691,5.243,0.096,7.252-1.592
		c1.328-1.116,2.238-2.615,2.633-4.258c0.395,1.643,1.305,3.142,2.633,4.257c2.01,1.689,4.72,2.284,7.252,1.593
		c2.489-0.679,4.944-1.418,7.298-2.197c5.667-1.875,10.345-5.961,13.171-11.504c7.028-13.782,21.546-22.117,36.988-21.23
		c19.744,1.132,35.835,17.509,36.632,37.284C488.291,414.299,484.446,424.46,477.031,432.179z"/>
	<path d="M170.439,276.007c-19.285,0-37.521,8.365-50.537,22.804c-13.016-14.439-31.251-22.804-50.537-22.804
		C31.118,276.007,0,308.436,0,348.298c0,34.451,19.675,70.372,58.479,106.763c28.292,26.534,56.178,43.139,57.352,43.832
		c1.256,0.743,2.664,1.114,4.072,1.114s2.816-0.371,4.072-1.114c1.173-0.693,29.059-17.298,57.352-43.832
		c38.804-36.391,58.479-72.312,58.479-106.763C239.806,308.436,208.688,276.007,170.439,276.007z M119.903,482.577
		C100.212,469.958,16,412.231,16,348.298c0-31.039,23.94-56.291,53.366-56.291c17.464,0,33.858,9.067,43.854,24.255
		c1.48,2.248,3.991,3.602,6.683,3.602s5.203-1.354,6.683-3.602c9.996-15.188,26.39-24.255,43.854-24.255
		c29.426,0,53.366,25.252,53.366,56.291C223.806,412.231,139.592,469.959,119.903,482.577z"/>
	<path d="M267.197,130.366c36.384,26.461,83.775,73.852,110.236,110.235c1.505,2.07,3.91,3.295,6.47,3.295s4.964-1.225,6.47-3.295
		c26.461-36.383,73.852-83.774,110.236-110.235c2.07-1.505,3.294-3.91,3.294-6.47s-1.225-4.964-3.294-6.47
		C464.225,90.966,416.833,43.574,390.373,7.191c-1.505-2.07-3.91-3.295-6.47-3.295s-4.964,1.225-6.47,3.295
		c-26.461,36.383-73.852,83.774-110.236,110.235c-2.07,1.505-3.294,3.91-3.294,6.47S265.127,128.861,267.197,130.366z
		 M383.903,25.208c26.044,33.603,65.084,72.643,98.688,98.688c-33.604,26.045-72.644,65.085-98.688,98.688
		c-26.044-33.603-65.084-72.643-98.688-98.688C318.818,97.851,357.858,58.811,383.903,25.208z"/>
	<path d="M127.95,4.923c-2.435-1.369-5.407-1.369-7.842,0C115.532,7.496,8.04,68.8,8.04,143.748
		c0,36.937,30.155,66.987,67.22,66.987c7.464,0,14.72-1.192,21.587-3.515c-5.451,11.404-12.65,21.975-21.309,31.201
		c-2.183,2.326-2.775,5.726-1.508,8.653c1.267,2.927,4.152,4.821,7.341,4.821h85.938c3.189,0,6.074-1.895,7.341-4.821
		c1.268-2.927,0.675-6.327-1.508-8.653c-8.596-9.159-15.759-19.653-21.198-30.973c6.659,2.171,13.668,3.286,20.853,3.286
		c37.065,0,67.219-30.05,67.219-66.987C240.017,68.8,132.526,7.496,127.95,4.923z M172.798,194.735
		c-11.273,0-21.979-3.603-30.961-10.417c-2.748-2.084-6.521-2.174-9.364-0.222c-2.843,1.952-4.115,5.507-3.156,8.82
		c4.458,15.395,11.627,29.999,21.035,42.98H98.331c9.538-13.159,16.77-27.979,21.215-43.609c0.948-3.334-0.358-6.899-3.237-8.831
		c-2.878-1.932-6.673-1.79-9.399,0.351c-9.103,7.149-20.047,10.929-31.65,10.929c-28.243,0-51.22-22.873-51.22-50.987
		c0-33.705,27.791-65.609,51.105-86.438c20.135-17.989,40.537-31.048,48.884-36.119c8.347,5.071,28.749,18.13,48.884,36.119
		c42.238,37.737,51.104,67.834,51.104,86.438C224.017,171.862,201.04,194.735,172.798,194.735z"/>
</g>
<g>
</g>
<g>
</g>
<g>
</g>
<g>
</g>
<g>
</g>
<g>
</g>
<g>
</g>
<g>
</g>
<g>
</g>
<g>
</g>
<g>
</g>
<g>
</g>
<g>
</g>
<g>
</g>
<g>
</g>
</svg>
