<?xml version="1.0" encoding="utf-8"?>
<!-- Generator: Adobe Illustrator 24.2.1, SVG Export Plug-In . SVG Version: 6.00 Build 0)  -->
<svg version="1.1" id="Layer_1" xmlns="http://www.w3.org/2000/svg" xmlns:xlink="http://www.w3.org/1999/xlink" x="0px" y="0px"
	 viewBox="0 0 400 400" style="enable-background:new 0 0 400 400;" xml:space="preserve">
<style type="text/css">
	.st0{fill:#D16361;}
</style>
<path class="st0" d="M83.25,206.96c36.38,26.46,83.77,73.85,110.24,110.24c1.51,2.07,3.91,3.29,6.47,3.29s4.96-1.23,6.47-3.29
	c26.46-36.38,73.85-83.77,110.24-110.24c2.07-1.51,3.29-3.91,3.29-6.47s-1.23-4.96-3.29-6.47
	c-36.38-26.46-83.78-73.85-110.24-110.23c-1.51-2.07-3.91-3.29-6.47-3.29s-4.96,1.22-6.47,3.29
	c-26.46,36.38-73.85,83.77-110.24,110.24c-2.07,1.5-3.29,3.91-3.29,6.47S81.18,205.45,83.25,206.96z M199.95,101.8
	c26.04,33.6,65.08,72.64,98.69,98.69c-33.6,26.04-72.64,65.09-98.69,98.69c-26.04-33.6-65.08-72.64-98.69-98.69
	C134.87,174.44,173.91,135.4,199.95,101.8z"/>
</svg>
