<svg xmlns="http://www.w3.org/2000/svg" viewBox="0 0 695.6 441.2"><defs><style>.a{fill:none;stroke:#d1ac5f;stroke-linecap:round;stroke-linejoin:round;stroke-width:5px;}.b{fill:#d1ac5f;}</style></defs><path class="a" d="M369.3,89c-2.8,3-9,8.5-13.5,8.5-19,.2-15.8-15.9-25.5-10.7-4.7,2.6-3.6,7.6-3,13.1s1,12.1-4.3,18.4a16.2,16.2,0,0,1-2.8,2.5c-10.1,5.6-28.7-2.2-30.7,3.7-2.9,8.8,11.4,6,11.7,13.5.4,4.7-4,6.1-8.5,6.1,2.9-1.4,7.2-2.7,6.7-5.7-1.5-7.4-15.4-5.2-12.5-14.6s22.7,1.3,31.4-8h0a.7.7,0,0,0,.4-.4c11.1-13.6,1-28.9,8.7-34.7s17.5,15.3,31,7.9c3.7-2,6-7.2,6.4-8.5a3.3,3.3,0,0,0,.5-1.6m4,10.5,2-2.2a8.2,8.2,0,0,0-1.6,3.2m97.2,122.7,2.1-26.9-24.7,99.8h0c.1.2.2.5,0,.5-.3,3,.8,2.9.8,5.2a11.4,11.4,0,0,1-1,5.7c-.7,1.1-3.5-.3-4.5-.8a11.6,11.6,0,0,1-5.3-7.1c0-2.3,1.2-6.4-.1-11.4s-1.9-4.9-2.4-9.3a3.8,3.8,0,0,1,2.8-4.7l1.3-.3h0a20.9,20.9,0,0,0,2.1-.5c2-.7,1.9-2.4,3.2-3.5s2.8-5.3,5-9.9,4.9-11.8,7.1-17.2c1.5-3.7,1.4-6.8,3.9-10s6.3-5,9.4-9c.8-1.5,1.7-2.1,1.2-4.2s-1.9-2.9-3.8-3.4c-6.4-1.8-13-4.1-19.2-6.3a93.1,93.1,0,0,1-12.4-5.5c-5.4-3.1-11.9-5.8-16.7-9.6-2.8-2.1-4.5-4.3-5.2-7.4s-2.5-8.2-2-10.6a43.8,43.8,0,0,1,1.6-8.6,49.9,49.9,0,0,0,1.1-5.3c.1-2-1.5-7.3-2-8.5m28.7,2.3c.7,2.6,1.6,8,2.2,9.7s1.1,6.1,1.2,7.2c5.8,4.7,12.9,10.2,17.5,14.1h0a40.6,40.6,0,0,1,4.8,4.5c2.1,1.7,5.6,4.1,9.8,7.6s7.2,5.5,9.9,8.2a14.3,14.3,0,0,1,2.2,2.6l2.8,7.5a15.2,15.2,0,0,0,.3,2.1,4.5,4.5,0,0,1-1,3.5s-5,6.2-6.3,7.3-2.2,1.1-4.3,4.5a12.8,12.8,0,0,0-1.2,1.9c-5.6,8.6-19.7,28.3-21.8,31.6a59.6,59.6,0,0,0-5.7,11.3c-1.5,2.9-1.5,5.7-2.7,8.7s-.9,4.3-1.3,7.1m3.5-182.7c.2-.1.1-.4.4-.5v.3ZM402.3,66.8c3.9,5,12.9,10.3,17.7,8.8h0c4.3-1.4,9-4.9,13.8-8.7.2-.1.5-.2.6-.5h0c4.1-2.7,7.4-.8,8.2,2.6.2,1.3.7,5.7,4.4,3.4-3.8,4.3-4.9-.1-5-1.2-1.1-4.4-4.8-4.2-7-3.3l-1.6.9c-3.4,3-5.2,6.5-11.3,9.4,3.7,0,6.2-.9,9.6-4,1.6-1.1,3.3-.3,3.6,2.7-1.5-1.7-2.4-2.5-4.1-1-3.8,3.4-6.6,5.1-8.8,5.9a27.6,27.6,0,0,1-10.6,1.9m73.7,116.4,2.8,7.5c-.4-1-.6-2.4-1.3-4.1a15.8,15.8,0,0,0-1.5-3.4Zm-75.1-3.5-1.8-31.7a4.9,4.9,0,0,0-1.8-1.4c-.9,0-7,.9-8.4,1.8h0c-.5.2-.9.6-.7,1.1-.1,2,3.7,10.5,8.3,18.7l.2.5h0a44.4,44.4,0,0,0,4,5.2c-1,.3-8.1,3.2-8.8,3.7m-7,2.4,52.7-29.1c-.5-3.5-1.4-12.3-1.1-13.6a8.9,8.9,0,0,1,2.7-3.6h0c.9-1.2,2.1-1.9,3-1.7s6.9,18.2,9.2,22.7a90.4,90.4,0,0,0,8-11.3l.7-1.7h0c1-2.1,1.5-9,1.9-11.1,0,0,9.5.9,22.2,11.2s15.8,20.8,18.6,29.7,4.6,18.8,6.6,28.5,4.4,20.3,6.8,26.8,6,15.6,11.8,24c3.7,6,10.8,12.1,17.2,16.2h0a42.5,42.5,0,0,0,7,3.3l.3.7h-5.8a137.8,137.8,0,0,0-35.5,4.8,29.1,29.1,0,0,0-5,1.6l-10.9,3.6-12.3,4.9m69.2-15.5a7.2,7.2,0,0,0,1.9.4c2.2.6,1.3.6-1.6.3l-.3-.7Zm25-102.4c-1.7-4-13.7-11.9-17.3-16.2h0c-4.3-4.6-9.8-14-12.2-18.2M390,173.9c-2.3-10.5.2-15.2,4.1-20.1.7-1.1,1.7-2.1,2.4-3.2s5.5-2.1,6.6,8.9c4.4-5.4,1.2-16.1,0-18.5M369.7,90c-1.3,4.1-2.3,11.1-.8,14.2,4,8.4-2.8,14.5,1.8,21.2.8,6.6-3.7,12-1.7,16.4,4.1,10.1-8.2,15.9-1.5,26.7,2.5,4.5,5.6,5,6.9,9.9m14.7-77.1a15.3,15.3,0,0,0,2.5,6.5h0c.9,1.6,4.3,6,4.9,7.5s1.2,4.7,2.1,7.8c1.2,5.5,3.1,16.4,4.5,17.9s3.7,2.9,4.8,2.7l6.8.8a84.1,84.1,0,0,0,13.3,1.2c4,.2,8.5.8,11.8.4s4.7-.4,6.9-.7h1.6a29.7,29.7,0,0,0,9.5-2.8,16.6,16.6,0,0,0,4.6-2.9l.8-.9a19,19,0,0,1,3.8.9,25.6,25.6,0,0,1-1.5,7.4c3.6-.3,8.6.7,11.8,1.7a151.2,151.2,0,0,0,28.6,7.1,40.3,40.3,0,0,1,5.9.5c17.7,1.6,34.4-.8,49.9-7.9,2.4-1.2,4.8-2.4,7.4-3.9s2.9-2,4.5-2.9a2.3,2.3,0,0,1,1.4-.8,9.6,9.6,0,0,0-2.2-1.5h0c-5.3-4.2-10-12.7-12.8-18.4m0,0c-2.5,1.5-4.6,5.3-6.9,6.7h0c-15.5,9.3-29.9,16.7-45.9,16.6h0l-5.9-.4h0a87,87,0,0,1-30.8-8.4c.5-1,.2-4.1-.7-4.9s-1.1-.4-1.6-.2a26.8,26.8,0,0,0-4.3.5,12.7,12.7,0,0,0-3.7,3.1h0c-.4.4-.9.6-1,1a10.2,10.2,0,0,1-3.7,1.4,38.8,38.8,0,0,1-11.9,1.1h0l-4.6-.2a51.4,51.4,0,0,1-14.5-3.6c-3.4-1.6-7.9-2.1-10.1-2.7s-1.7-3.1-2.1-4.6c-.6-3.2-.2-8.2-1.4-12.9s-2.8-9.4-2.7-11.5.6-3.6.3-6.6c.2,1.9,1.2,3.2,2.2,3.4s-2.6,3-2.4,4.9m26.3,33c-.7-1.2-3.6-5.5-4-6.5-.9-3.1-.7-6.3-.7-8.6s.4-6.4-.1-8.5-.8-5.8-1.1-7.4h0a4.7,4.7,0,0,0,.7-2.4,12,12,0,0,0,.3-2.4,3.7,3.7,0,0,0-.3-1.5c-.4-1.6,0-1.5-.3-2.2a2.6,2.6,0,0,0-1-1.1.7.7,0,0,1-.4-.4h0a16.7,16.7,0,0,0-2.7-1.8c-2.1-1.2-3.8-1.7-5.1-2.9s-5-4.3-7.8-7a26.8,26.8,0,0,0-3-2.8c-1.3-1-1.9-1-2.6-1.6a7.3,7.3,0,0,1-2.1-3.8c-.2-1.3-.9-5.3-1.3-6.6a7.1,7.1,0,0,1-.8-2.8,6.1,6.1,0,0,1,2.4-4c1.2-.8,4.1-1.3,5-1.9s.5-.8.6-1.4a4.3,4.3,0,0,0-.5-2.1c-.5-.4-.5-.7-.8-1.4s.4-.4-.1-1.7l-.7-1.1a4.2,4.2,0,0,1-.2-1.1c-.1-.5.5-.5.2-1.2s-.8-.6-.9-.8-.8-.6-.2-1.3,2.2-.9,1.7-2.1-.9-.8-1.5-1.2a5.8,5.8,0,0,0-1.9-1c-1.1-.7-2-.9-2.4-1.9s.1-.6-.3-1.6a34.8,34.8,0,0,0-2-3.8c-.8-.5-2.8-3.7-3.4-3.8-1.3-2.2-9-1.1-12.4.5S375.7,38.7,374,43s-.6,4.5-2.3,5.2c-4,2.3-3.2,8-.8,10.6s-.6,5-1.8,6.6c-3.1,4.3-2.6,8.1-3.8,13.1h0m104.5,52.1c-.1-3.1,1.7-11.8,4.9-17.5-3.3,2.4-6.1,2.6-7,4.7a8.9,8.9,0,0,1-5.7,4.4c3.2-4.3,3.1-7.5,3.5-10.2s2.3-5.1,6.5-8.4a12.6,12.6,0,0,0,5-7.9c-7.1,5.3-13.3,7.9-18.6,6.5s-6.6-1.4-10.1.5v-.3h0a9.4,9.4,0,0,1,7.1-4.4c3.3.4,5.3.3,9.6-1.7s11.4-11.2,12.3-14.9c.2-.1.1-.4.1-.4h0c.8-2.5,1.3-5.6,2.3-8.8,1.9-6.4,4.8-13.8,9.2-17.7s8.3-11.2,19.3-10c-6.3-3-10.1-1-11.7-.1-4.1,2.7-7.7,5.3-11.3,7.8s-9.4.7-11.9,2.3h-.3c-2.4,1.8-2.7,3.4-3.8,4.9a13.6,13.6,0,0,1-4.5,3.2c1.2-2.8,2.4-3.5,1.8-7.3a4.4,4.4,0,0,1,.2-2.3h0a10.4,10.4,0,0,1,4.5-3.2h0c2.7-1,6.2-1.8,9.2-2.6,5.1-1.1,5.1-7.1,9.4-11.3,6.2-5.5,10.6-6.6,15.9-6.9,3.3-.4,7.4.8,11,1.2h0c1.9.4,3.3.4,4.1-.4s-1.4-8.1-6.6-12a29.4,29.4,0,0,1,6.8.5h0a18,18,0,0,1,7,3.6h0a5,5,0,0,1,1.6,1.1,18.6,18.6,0,0,1,3.9-4h0a36,36,0,0,1,7.5-6.4m0,0h0c9.3-5.5,18.9-5.7,26-5-9,3.1-11.5,6.4-14.4,10.9,9-3.4,13.6-5.5,19.6-1s6.7,15.4,4.6,27.6c-.9-12.7-6.2-19.2-10.3-20.8s-9.6,4.8-16.1,12.4c-.9-6.2-1.8-11.7-6-14.4,0,0-.1.4-.4.5-3.7,2.2-4.4,7-6,9.6a16.4,16.4,0,0,0-1.2,2.2c-.6,1.9-1.7,3.7-2.4,5.5s-1.5,3.6-1.8,4.9a1.8,1.8,0,0,1-1.4,1.7,12,12,0,0,1-4.4,1.1c1.7,4.5,1.2,8.4.5,11.8m33.8-34c1.2,3.8-3.2,16.5-.5,18.3s3.8,6.9,3.8,6.9m20.2,52.9-8.4-21.9c-2.1-5.7,3-2,.1-9.4-1.8-4.8-4.2-2.1-5.8-5.5l-6.1-16.1m20.2,52.9c.9,1.6,8,16.5,7.4,20.2-.3,1.5-2.8,3.9-6.4,5.6s-5.8,1.9-8.6.7a2.3,2.3,0,0,0-1.1-.1c-4.1-1.6-5.4-3.7-6.2-5.7s-1.7-2.2-2.9-.9-6.3-2.4-6.7-2.5a66.6,66.6,0,0,0-10.3-4.1,15.3,15.3,0,0,0-6.7-.3l5.6,13.8M527.2,59.6c-1.1,3.8-.2,3.7.1,5.3.2,5,3.2,9,3.9,14.7-3,6.3-3.1,17.8-9.6,28.4-4.7,7.8-12.3,21.8-16.9,26.7l-1.4,1.8a106.3,106.3,0,0,1-8.3,6.7m66.1-27.8,5,6.4h0m20.6,63a11.1,11.1,0,0,1,2.9-1.4h0l3.5-1.3a6.6,6.6,0,0,1,2.1-1.1h0l8.4-4.1h0c6.8-3.7,15.2-8,19.5-10.8,7.6-4.6,13.4-2.9,17.2-2,7.5,1.7,17.3,13.9,24.7,17.9,9.3,4.7,19.1,6.6,21,12.5,4,11,7.7,20.7,12.2,30.3,2.3,5.4-7,7.8-14.5,6.1-5.4-3-9.3-4.4-10.3-6.3s2.4-5.5,2-10.4c-.1-3.1-4.4-10-8.8-15.5a30.5,30.5,0,0,0-10.2-7.4,135.8,135.8,0,0,0-16.8-5c-8.5-2.2-23.2,6.3-28.4,10.5a3.3,3.3,0,0,1-1.3,1.1,20.4,20.4,0,0,1-6.5,4.5,57.7,57.7,0,0,1-5.6,2.7c-1.7.6-3.5,1-5,1.6h0c-.6-.1-7.5,3.3-7.8,3.4m-52.3,49.7s3.6-2.5,11.3-4h0l.8-.3c1.3-.2,2.9.3,5,.6a20,20,0,0,0,6,0c8.9-1.4,24.2-9.8,28.2-11.9s7.1-5.3,11.2-8a27.9,27.9,0,0,1,7.4-3.1l.3.2a17.7,17.7,0,0,1,5.6-.4,41.1,41.1,0,0,1,7,1.3,49.6,49.6,0,0,1,9.2,4.7,30,30,0,0,1,4,3.6A32.2,32.2,0,0,1,635,251c1.6,3.3,1.6,7,2.6,8.9,2,4.7,6.2,8.8,4.4,10.9a4.3,4.3,0,0,1-2,1.6c-1,.9-2.3,1.2-3.5,1.9,0,6,4.1,16.7,7.7,21,.6.6,2.4.2,4.2-1.1s5.6-3.8,6.1-4.8,2-4.5,2.2-8.3c.1-2-1.5-6.3.1-11.1s3.8-6.3,2.1-10.8a16.7,16.7,0,0,0-5.1-6.6c-3.4-3-5.3-5.9-6.8-7.4-2-3.2-6.3-10.7-11.3-16.2s-7.8-16.1-14.1-18.5c-1.1-.4-2.7-.4-5.1.2a90.1,90.1,0,0,0-9.1,2.4h0l-5.7,2.1a19.8,19.8,0,0,0-4.9,1.9h0l-7.8,3h0l-15.4,6.5c-6.7,2.5-9.9,2.3-10,0s18.6-14.3,21.4-16.5" transform="translate(-5.5 -4.8)"/><path class="b" d="M148.4,185.1c.7-.8,1.8-.6,3.5.5A28.6,28.6,0,0,1,157,190a34.8,34.8,0,0,1,4.6,5.7c1.3,2,1.8,3.5,1.7,4.4l-6.2,13.1c-4,9-8.3,18.1-12.7,27.3s-9.3,18.2-14.4,26.9A239.7,239.7,0,0,1,113.5,292a138.2,138.2,0,0,1-19.4,20.2,95.1,95.1,0,0,1-23,14,75.5,75.5,0,0,1-27.2,5.7c-7.3.2-13.5-.6-18.6-2.5A30.3,30.3,0,0,1,13,321.8a25.8,25.8,0,0,1-6.4-11.4,32.9,32.9,0,0,1-.8-13.7,52.8,52.8,0,0,1,7-19.2,65.5,65.5,0,0,1,15.3-17.9,44,44,0,0,1-.7-14.2,108.4,108.4,0,0,1,6.7-28.2A155,155,0,0,1,48.5,188a182,182,0,0,1,21.1-27.4,156.9,156.9,0,0,1,26.6-23,133.6,133.6,0,0,1,31.1-15.7,101.7,101.7,0,0,1,34.3-5.8,34.1,34.1,0,0,1,12.5,2.2,18.8,18.8,0,0,1,7.6,5.8,19.5,19.5,0,0,1,3.5,8.5,33.5,33.5,0,0,1,.1,10,54.2,54.2,0,0,1-2.3,9.9,68.6,68.6,0,0,1-4.3,9.6,72.1,72.1,0,0,1-5.5,8.8A55.3,55.3,0,0,1,167,178v-.3c-.9,1-2.7,1.7-5.3,2.3a53.3,53.3,0,0,1-7.8.9,16.2,16.2,0,0,1-7.3-1.2c-2-.9-2.7-2.4-2.1-4.7l1.9-1.7,6-5.7a83.9,83.9,0,0,0,6.6-7.5,64.8,64.8,0,0,0,5.7-9.2,31.7,31.7,0,0,0,3-10.5,13,13,0,0,0-.1-3.4,8.3,8.3,0,0,0-8.3-7,65,65,0,0,0-23.8,4.9,108.7,108.7,0,0,0-23.9,13.2,158.3,158.3,0,0,0-22.1,19.3,176,176,0,0,0-19,23.5,151.8,151.8,0,0,0-14.3,25.7,114.1,114.1,0,0,0-8.1,26,35.9,35.9,0,0,0-.3,4.7,92.4,92.4,0,0,1,15.4-4.9,88.1,88.1,0,0,1,17.5-2.2h5.3c1,.2,2.1,1.2,3.3,2.8a27.3,27.3,0,0,1,2.9,5.3,14.8,14.8,0,0,1,1.3,5.1c.1,1.6-.4,2.4-1.5,2.6l-8.7-.9c-2.8-.1-5.5-.2-8.2-.1a74.5,74.5,0,0,0-13.1,1.6A62.2,62.2,0,0,0,50.8,260a21.3,21.3,0,0,0,6.3,7.9,16.7,16.7,0,0,0,10,3.1A48,48,0,0,0,82,268.3a87.3,87.3,0,0,0,15.3-7,102.1,102.1,0,0,0,14.2-9.8,87.6,87.6,0,0,0,11.4-11.4l5.6-11.1c2.7-5.4,5.2-10.4,7.5-15.2s4.4-8.9,6.2-12.6,3.2-6.8,4.2-9.2,1.4-3.8,1.3-4.3ZM66,284.1c-8.3.3-15.1-.7-20.5-3.1a28.8,28.8,0,0,1-12.4-9.6,47.8,47.8,0,0,0-8.4,11.1,33.9,33.9,0,0,0-4,11.7,26.6,26.6,0,0,0,.6,9,18,18,0,0,0,4.2,7.5,20.5,20.5,0,0,0,8,4.9,31.6,31.6,0,0,0,11.7,1.6A45.1,45.1,0,0,0,63,313a69,69,0,0,0,16.1-10.4,101.9,101.9,0,0,0,14.6-15.3,216.8,216.8,0,0,0,13.4-19.2c-3.3,2.1-6.7,4-10.1,5.9a111,111,0,0,1-10.4,5.1,71.8,71.8,0,0,1-10.5,3.5A44.9,44.9,0,0,1,66,284.1Z" transform="translate(-5.5 -4.8)"/><path class="b" d="M202.9,192.7a9.7,9.7,0,0,1,7.2,4.4,17.8,17.8,0,0,1,2.8,8.3,12.2,12.2,0,0,1,1.8,4,28.3,28.3,0,0,1,.7,5.4,13.8,13.8,0,0,0-.3,2,19.9,19.9,0,0,1-.2,2.2,42.4,42.4,0,0,1-2.7,10.6,56.2,56.2,0,0,1-5,10.5,70.8,70.8,0,0,1-6.7,9.8,55.8,55.8,0,0,1-8,8.1,42.9,42.9,0,0,1-8.6,5.5,22.3,22.3,0,0,1-8.7,2.2,18,18,0,0,1-13-4.7c-3.4-3.2-5.4-8.4-5.8-15.4v-2.8l.3-3.2a38.1,38.1,0,0,1,3-10.8,62.2,62.2,0,0,1,5.7-10.8,73.8,73.8,0,0,1,7.9-10,65,65,0,0,1,9.4-8.2,44.3,44.3,0,0,1,10-5.4A26.7,26.7,0,0,1,202.9,192.7Zm-7.2,31.9a2.1,2.1,0,0,1-1.4-1.6,22.6,22.6,0,0,1-.4-2.9c0-1.1.1-2.2.2-3.4s.3-2.3.4-3.2a10.6,10.6,0,0,1,1.4-3.1,32.7,32.7,0,0,1,2.4-2.7l2.5-2.1,2-1.3a4.1,4.1,0,0,0-1.7-.1,16.6,16.6,0,0,0-6.1,2.3,32.4,32.4,0,0,0-6.4,4.8,55.7,55.7,0,0,0-5.8,6.9,76.8,76.8,0,0,0-4.7,7.8,54.8,54.8,0,0,0-3.4,8,36.9,36.9,0,0,0-1.8,7.3,14.2,14.2,0,0,0,.7,7.6c.8,2,2.6,3,5.2,3.1a11.7,11.7,0,0,0,6-1.7,34.3,34.3,0,0,0,6-4.6,53.4,53.4,0,0,0,5.5-6.6,69.8,69.8,0,0,0,4.9-7.9,56.6,56.6,0,0,0,3.5-8.1,27.4,27.4,0,0,0,1.8-7.4l.2-.6a5.3,5.3,0,0,0-2.2.9,13.7,13.7,0,0,0-2.3,1.9l-2,2.4a9,9,0,0,0-1.1,2.2Z" transform="translate(-5.5 -4.8)"/><path class="b" d="M268.5,234.7a54.6,54.6,0,0,0-3.1,7.1,31.2,31.2,0,0,0-1.7,6,2.4,2.4,0,0,1-.5,1.4h1.2a20,20,0,0,0,6.8-4.2,65.1,65.1,0,0,0,6.3-6.5,79,79,0,0,0,5.8-7.8c1.9-2.7,3.7-5.3,5.3-7.9A6.6,6.6,0,0,0,290,221l.9-1.6c.3-.4.9-.5,1.8-.4a6.6,6.6,0,0,1,2.6,1.1,6.1,6.1,0,0,1,2,1.9,1.5,1.5,0,0,1,0,2l-3.3,4.9h0c-3.2,4.8-6.7,9.6-10.2,14.4a85.8,85.8,0,0,1-12,12.8,32.8,32.8,0,0,1-2.6,2.2,30.3,30.3,0,0,1-3.5,2.3,26.5,26.5,0,0,1-4.2,1.8,14.9,14.9,0,0,1-4.7.7c-3.8-.2-6.6-1.4-8.2-3.8a12.8,12.8,0,0,1-2.1-8.9,87,87,0,0,1-10.6,9.1,20.8,20.8,0,0,1-10.4,4.1,14.4,14.4,0,0,1-7.4-2.3,15.1,15.1,0,0,1-4.2-4.9,17.2,17.2,0,0,1-1.7-6.1,32.1,32.1,0,0,1,0-6.2,28.9,28.9,0,0,1,.9-4.3,50.3,50.3,0,0,1,3.6-9.9,94.1,94.1,0,0,1,6.3-10.8,88.2,88.2,0,0,1,8.1-10.4,67,67,0,0,1,9.4-9.1,50.4,50.4,0,0,1,10.3-6.5,25.6,25.6,0,0,1,10.5-2.7,15.6,15.6,0,0,1,3.1.2l3.1.6a8.8,8.8,0,0,1,5,3.8l1.1-1.6,4.3-7.2c1.9-3,3.7-6.1,5.5-9.4s3.4-6.5,4.9-9.6,2.9-6.1,4.2-9,2.2-5.5,3.1-7.9a5.1,5.1,0,0,1,4.4-.1,13.6,13.6,0,0,1,5,3,13.9,13.9,0,0,1,3.4,4.8,7.2,7.2,0,0,1-.1,5.6c-.4.9-1.3,2.6-2.5,4.9l-4.2,7.7-5.2,9-5.3,8.9-3.9,6.7h.1c-3.2,5.1-6.4,10.5-9.5,16a199.2,199.2,0,0,0-9,17.9Zm-33.7,13.7a14.5,14.5,0,0,0,4.3-2.9,57.3,57.3,0,0,0,5.6-5.5l5.7-6.6,4.9-6.4,1.9-4.1c2.6-5.5,5.5-10.9,8.7-16.3a7.7,7.7,0,0,0-1.2-3.1,3.3,3.3,0,0,0-2.8-1.5,15.5,15.5,0,0,0-9,3.5,44.8,44.8,0,0,0-8.7,8.7,72,72,0,0,0-7.5,11.1,78.6,78.6,0,0,0-5.2,10.6,18.2,18.2,0,0,0-1.1,3.3,20.1,20.1,0,0,0-.7,3.9,24.6,24.6,0,0,0-.2,2.6,5.9,5.9,0,0,0,.6,2,2.7,2.7,0,0,0,1.7,1A6.8,6.8,0,0,0,234.8,248.4Z" transform="translate(-5.5 -4.8)"/><path class="b" d="M306.7,189.9a4.8,4.8,0,0,1,4.2.2,11,11,0,0,1,4.3,3.2,11.6,11.6,0,0,1,2.7,5,7.4,7.4,0,0,1-.6,5.8c.1-.2.1,0-.2.4l-1.3,2-1.8,2.8-1.8,3-4.5,7c-1.7,2.6-3.3,5.2-4.9,7.9l-4.7,7.8-3.7,6.7c-1,2-1.7,3.5-2.2,4.7s-.4,1.8.1,1.8h.8a26.5,26.5,0,0,0,7.5-4.1,59.9,59.9,0,0,0,6.9-6.5c2.2-2.4,4.3-4.9,6.4-7.6l5.9-7.7,2.1-2.9a1.6,1.6,0,0,1,1.9-.4,6.2,6.2,0,0,1,2.3,1.4,6.9,6.9,0,0,1,1.6,2.2,2,2,0,0,1-.2,2.1v-.2c-3.8,5.3-8.1,10.7-12.9,16.3a133.5,133.5,0,0,1-14.5,14.6l-2.8,2.1a27.7,27.7,0,0,1-3.7,2.2,32.5,32.5,0,0,1-4.3,1.8,14.1,14.1,0,0,1-4.4.8c-3.1.1-5.3-1.1-6.4-3.4a14.5,14.5,0,0,1-1.1-8.8,36,36,0,0,1,2.3-8.2h-.1a123.5,123.5,0,0,1,6.4-14.2c2.8-5.4,5.7-10.7,8.8-16.1l5.6-10.7c1.9-3.5,3.4-6.7,4.7-9.5Zm17-37.3c.9-.2,2.1.3,3.4,1.5a26.2,26.2,0,0,1,3.9,4.2,31.5,31.5,0,0,1,3,4.8,6.1,6.1,0,0,1,1.1,3.5,32.2,32.2,0,0,1-2.8,6.2l-3.1,5.5-3.2,5.8a63,63,0,0,0-3.2,6.8,9.2,9.2,0,0,1-3.1-1.6,17.7,17.7,0,0,1-3-3.1,16.2,16.2,0,0,1-2.3-3.7,6.7,6.7,0,0,1-.6-3.2,46.9,46.9,0,0,1,1.4-5.3c.6-1.9,1.3-4,2.1-6.1s1.6-4.2,2.3-6.4a42.5,42.5,0,0,0,1.7-6.3Z" transform="translate(-5.5 -4.8)"/><path class="b" d="M336,188.9a4.8,4.8,0,0,1,4.2.1,11.7,11.7,0,0,1,4.6,3.2,12.2,12.2,0,0,1,3,5,7.5,7.5,0,0,1-.1,5.7l-2.1,4.3c-1.1,1.9-2.2,4.2-3.6,6.7l-5.6,10.7c-2,3.9-4,7.5-5.8,10.9s-3.4,6.2-4.8,8.5a33.6,33.6,0,0,1-2.3,3.9c1.4-.3,3.4-1.7,6.3-4.4s6-5.8,9.4-9.6,7.1-8.1,10.8-12.7,7-9,10.2-13.2,5.8-8.2,7.9-11.7a27.5,27.5,0,0,0,3.8-7.7c.3-.5.8-.2,1.6.8a15.2,15.2,0,0,1,2.2,3.8,26.4,26.4,0,0,1,1.7,4.7c.4,1.6.4,2.6-.1,3.2l-7.6,10.3c-3,4.1-6.3,8.4-10,12.8s-7.5,9-11.5,13.4-7.9,8.4-11.8,12a82.1,82.1,0,0,1-11.5,8.8c-3.7,2.2-7.1,3.4-10.2,3.4a6.4,6.4,0,0,1-5.6-2.7c-1.4-1.9-1.9-4.7-1.3-8.4a20.1,20.1,0,0,1,.7-3.9,27.9,27.9,0,0,1,1.8-4.7c1-2.3,2.3-5.1,3.9-8.3s3.3-6.6,5.1-10.1l4.5-9.1c1.5-3.1,2.9-6,4.2-8.9s2.6-5.6,3.8-8.2,2.1-4.9,2.8-6.9Z" transform="translate(-5.5 -4.8)"/><path class="b" d="M426.1,206a1.4,1.4,0,0,1-.8,1.2,6.9,6.9,0,0,1-1.9.7l-2.2.2a6.4,6.4,0,0,1-2-.3,15.7,15.7,0,0,1,3.2,2.4,18.6,18.6,0,0,1,2.6,3.1,12.5,12.5,0,0,1,1.3,3.5,5.3,5.3,0,0,1-.3,3.5l-1,1.9a21.2,21.2,0,0,1-1.1,2.1c-.8,1.6-1.7,3.3-2.5,5.1s-1.7,3.5-2.4,5.2-1.4,3.3-2,4.8a31.3,31.3,0,0,0-1,3.8c0,.2,0,.3-.1.4l-.3.2h.8a21.3,21.3,0,0,0,6.8-4.2,65.8,65.8,0,0,0,6.4-6.5c2-2.4,3.9-5,5.8-7.8s3.6-5.4,5.3-7.9a15.3,15.3,0,0,0,1.4-1.7l.9-1.6a1.7,1.7,0,0,1,1.8-.4,6.2,6.2,0,0,1,2.5,1.1,5.2,5.2,0,0,1,2,1.9c.5.7.6,1.4.1,1.9l-3.3,5h0c-3.3,4.8-6.7,9.6-10.3,14.3a81,81,0,0,1-11.9,12.9l-2.7,2.2a35.4,35.4,0,0,1-3.5,2.3,26.5,26.5,0,0,1-4.2,1.8,14.3,14.3,0,0,1-4.6.7c-3.9-.2-6.6-1.5-8.3-3.8a13.3,13.3,0,0,1-2-8.9,85.9,85.9,0,0,1-10.6,9,20.1,20.1,0,0,1-10.5,4.2,14,14,0,0,1-7.3-2.3,15.1,15.1,0,0,1-4.2-4.9,17.8,17.8,0,0,1-1.7-6.1,32.1,32.1,0,0,1,0-6.2,18.8,18.8,0,0,1,.9-4.3,50.3,50.3,0,0,1,3.6-9.9,85.2,85.2,0,0,1,6.2-10.8q3.8-5.4,8.1-10.5a81.4,81.4,0,0,1,9.5-9.1,51.5,51.5,0,0,1,10.3-6.4,25.6,25.6,0,0,1,10.5-2.7h3l3.2.7a7.6,7.6,0,0,1,4.4,2.9,11.9,11.9,0,0,1,2.3,4.8,23.6,23.6,0,0,1,.5,6A27,27,0,0,1,426.1,206Zm-14,.5a4.3,4.3,0,0,1,2.8-.3,12.6,12.6,0,0,1,3.4,1.2,1.2,1.2,0,0,1-.4-1.3v-.9a1.4,1.4,0,0,1,0-.9,11.3,11.3,0,0,0,0-2.6,6.4,6.4,0,0,0-.4-2.4,3.5,3.5,0,0,0-1.3-1.8,3.7,3.7,0,0,0-2.3-.8c-2.9,0-5.9,1.2-9,3.5a51.1,51.1,0,0,0-8.7,8.7,96.6,96.6,0,0,0-7.5,11,102.2,102.2,0,0,0-5.2,10.7,34,34,0,0,0-1,3.3,27,27,0,0,0-.8,3.9,23.5,23.5,0,0,0-.1,2.6,3.4,3.4,0,0,0,.6,2,2.5,2.5,0,0,0,1.7,1,8.8,8.8,0,0,0,3-.3,15.5,15.5,0,0,0,4.4-3,57.3,57.3,0,0,0,5.6-5.5c2-2.1,3.9-4.4,5.8-6.8s3.5-4.5,4.8-6.4,2.1-4.8,3-7.1a35.6,35.6,0,0,0,1.9-5.9Z" transform="translate(-5.5 -4.8)"/><path class="b" d="M266.5,298.5a4.4,4.4,0,0,1,3.5-1.8,7.4,7.4,0,0,1,4,1,15.7,15.7,0,0,1,3.8,3.1,16.2,16.2,0,0,1,3.1,4.3,15.7,15.7,0,0,1,1.6,4.6,6.5,6.5,0,0,1-.5,4.2c-3,5.6-6.5,11.8-10.5,18.4s-8.2,13.6-12.7,20.7-9,14.1-13.5,21l-12.7,19.7-9.3,14.2c-2.9,4.4-5.4,8.2-7.5,11.6s-3.8,6.1-5,8.2a19.9,19.9,0,0,0-2,3.8h.2a309.5,309.5,0,0,0,25.7-19.7c8.6-7.4,17.1-15.2,25.5-23.6s16.4-17.2,24.3-26.4,15.2-18.5,22.2-28.1S320,314.7,325.9,305a276.4,276.4,0,0,0,15.3-28.6c.7-1.1,1.9-1.1,3.4-.2a18.6,18.6,0,0,1,4.5,4.1,22.7,22.7,0,0,1,3.7,5.6c1,1.9,1.3,3.4.8,4.5a200.2,200.2,0,0,1-12.6,21q-7.7,11.6-17.4,24c-6.5,8.3-13.4,16.7-20.8,25.3s-15,16.8-22.6,24.9-15.3,15.5-22.9,22.7-14.8,13.4-21.6,18.8A167.8,167.8,0,0,1,217,440.2c-5.7,3.4-10.5,5.3-14.3,5.8a11.3,11.3,0,0,1-5.3-1.4,13.8,13.8,0,0,1-4.2-3.8,17.1,17.1,0,0,1-2.7-5.4,12.2,12.2,0,0,1-.4-6.3l2.6-5.7A141.5,141.5,0,0,1,178.5,436c-4.6,3.4-8.7,5.7-12.3,6.8v-.2a31.1,31.1,0,0,1-7.5,1.3,16.6,16.6,0,0,1-8.4-1.7,12.8,12.8,0,0,1-5.2-5.1,17.9,17.9,0,0,1-2.4-7.6,32.3,32.3,0,0,1,.1-9.3,27,27,0,0,1,.6-4.1c.3-1.3.6-2.6,1-3.9,1.6-4.4,3.6-9.3,6.2-14.8s5.5-11.4,8.9-17.5,7.1-12.5,11.1-19.2,8.4-13.3,12.9-20.2,9-13.6,13.7-20.3,9.5-13.2,14.2-19.5a90.8,90.8,0,0,0-20.2,5.5,119.6,119.6,0,0,0-19.7,9.6,154.1,154.1,0,0,0-17.9,12.5A131.9,131.9,0,0,0,139,342.2a79,79,0,0,0-10.2,13.6c-2.6,4.4-4.1,8.4-4.3,11.9l-.9,2c-.7.8-1.9,1-3.8.6a14.8,14.8,0,0,1-5.7-2.7,17.2,17.2,0,0,1-4.7-5.6c-1.2-2.2-1.3-4.8-.5-7.9A80.4,80.4,0,0,1,120.5,333a112.7,112.7,0,0,1,16.4-17.4,123.3,123.3,0,0,1,19.2-13.9,159.5,159.5,0,0,1,20.3-10.1,142.8,142.8,0,0,1,19.2-6.3,85.4,85.4,0,0,1,16.4-2.4h3.5a15.5,15.5,0,0,1,3.1.1,11,11,0,0,1,5.2,2.1,17.5,17.5,0,0,1,4.4,4.2,19,19,0,0,1,3,5.1,10.1,10.1,0,0,1,.7,5,20.4,20.4,0,0,1-2.1,4.9c-1.2,2.3-2.8,5.1-4.7,8.3s-4.1,6.7-6.6,10.6-4.9,7.8-7.6,11.9l-10.4,16.1c-3.6,5.6-7.2,11.3-10.7,17s-6.9,11.4-10.1,17-6.2,10.8-8.7,15.8a145.6,145.6,0,0,0-6.4,13.6,44.5,44.5,0,0,0-3.1,10.4,5,5,0,0,0,.9,4c.8.9,2.3,1.1,4.4.5s7.1-3.3,11.4-6.8a127.3,127.3,0,0,0,13-12.7c4.5-5,9.1-10.4,13.7-16.2s9-11.5,13.1-17.2,8-11.1,11.4-16.1l8.6-12.6.5-.6c4.3-6.6,8.4-13.2,12.5-20s8.2-13.8,12.3-21.2c-.1-.1.1-.4.3-.9a8.9,8.9,0,0,0,.8-1.7c.3-.6.5-1.2.8-1.7a2.4,2.4,0,0,0,.4-1.1Z" transform="translate(-5.5 -4.8)"/><path class="b" d="M346.9,369.7a73.6,73.6,0,0,1-16.4,18.6A71.5,71.5,0,0,1,310,399.7a15.5,15.5,0,0,0,.6,6.1,4.4,4.4,0,0,0,3.7,3.3H314a10.2,10.2,0,0,0,5.6-.5,34.8,34.8,0,0,0,7.1-3.7,63.1,63.1,0,0,0,8-6.7,92.8,92.8,0,0,0,8.3-9.7l4.2-6.1,3.8-5.9a4,4,0,0,1,2.8-1.8,3.8,3.8,0,0,1,2.8.7,4.1,4.1,0,0,1,1.6,2.4,4.7,4.7,0,0,1-1.1,3.7l-2.8,4.5c-2.4,3.7-5.4,7.7-8.9,12.2a120.4,120.4,0,0,1-11.9,13.1,43.2,43.2,0,0,1-7.8,5.5,44.6,44.6,0,0,1-7,3A28.5,28.5,0,0,1,313,421l-4,.3c-6.3.2-10.8-1.4-13.7-4.9s-4.1-8.4-3.5-14.7a46.2,46.2,0,0,1,4.7-16.1,102.9,102.9,0,0,1,11.1-17.3,74.5,74.5,0,0,1,6.3-6.7,83.1,83.1,0,0,1,8.5-6.6,48.6,48.6,0,0,1,9.6-5,26.7,26.7,0,0,1,9.7-2q4.9,0,7.5,3c1.8,2.1,2.4,4.9,1.9,8.6a18.8,18.8,0,0,1-1.3,4.9,32.9,32.9,0,0,1-3,5.3Zm-6.6-9.6a21.8,21.8,0,0,0-8.4,4.1,47.5,47.5,0,0,0-7.6,7.3,83.1,83.1,0,0,0-6.6,9,71.9,71.9,0,0,0-4.8,8.9,67.3,67.3,0,0,0,15.5-10,57.6,57.6,0,0,0,12-14.7v.2a8.8,8.8,0,0,0,.9-2c.2-.6.3-1.2.5-1.7S341.4,359.7,340.3,360.1Z" transform="translate(-5.5 -4.8)"/><path class="b" d="M396.4,367.9a70.2,70.2,0,0,1-36.9,30,17.3,17.3,0,0,0,.7,6.1,4.4,4.4,0,0,0,3.6,3.4h-.2a11.1,11.1,0,0,0,5.5-.6,25.6,25.6,0,0,0,7.1-3.7,50.7,50.7,0,0,0,8-6.7,73.6,73.6,0,0,0,8.3-9.6c1.5-2,2.9-4,4.2-6.1l3.8-6a4.2,4.2,0,0,1,2.9-1.7,3.8,3.8,0,0,1,2.8.6,4.8,4.8,0,0,1,1.5,2.5,5.1,5.1,0,0,1-1,3.7l-2.9,4.4c-2.4,3.7-5.4,7.8-8.8,12.3a120.7,120.7,0,0,1-12,13.1,44.8,44.8,0,0,1-7.8,5.5,48.2,48.2,0,0,1-6.9,3,31,31,0,0,1-5.8,1.3l-4,.3c-6.3.2-10.8-1.4-13.7-4.9s-4-8.4-3.5-14.7a47.8,47.8,0,0,1,4.7-16.1,102.9,102.9,0,0,1,11.1-17.3,64.3,64.3,0,0,1,6.4-6.7,55.6,55.6,0,0,1,8.4-6.6,48.6,48.6,0,0,1,9.6-5,27.1,27.1,0,0,1,9.7-2c3.3-.1,5.8.9,7.6,3s2.3,4.9,1.8,8.5a17.8,17.8,0,0,1-1.3,4.9,29.7,29.7,0,0,1-3,5.4Zm-6.6-9.6a22.5,22.5,0,0,0-8.3,4.2,48.1,48.1,0,0,0-7.7,7.3,69.8,69.8,0,0,0-6.5,8.9,92.2,92.2,0,0,0-4.9,8.9A59,59,0,0,0,389.9,363h0a5.5,5.5,0,0,0,.9-1.9c.2-.7.4-1.2.5-1.7S390.9,358,389.8,358.3Z" transform="translate(-5.5 -4.8)"/><path class="b" d="M463.6,379.6c-2.6,3.8-5.5,7.9-8.6,12.2a99.6,99.6,0,0,1-10.1,12.1,55.8,55.8,0,0,1-11.5,9.4,26,26,0,0,1-12.8,4,14.2,14.2,0,0,1-10.7-4.2,21.1,21.1,0,0,1-5.4-10.6c-.8,2-1.4,4-2,6a44.4,44.4,0,0,0-1.6,6c-.3.9-1.1,1.3-2.4,1.3a14.5,14.5,0,0,1-8.4-3.5,3.5,3.5,0,0,1-1.7-3,84.6,84.6,0,0,1,4-14.9,137.3,137.3,0,0,1,6.2-15.1c2.4-5.1,5-10.1,7.8-15.2l8.3-15.1,4.6-7.8,5.1-9.5c1.7-3.2,3.3-6.4,4.8-9.5s3-6,4.3-8.9,2.4-5.6,3.2-8a5.4,5.4,0,0,1,4.5-.1,12.2,12.2,0,0,1,4.8,3,13.9,13.9,0,0,1,3.4,4.9,7.2,7.2,0,0,1,.2,5.4c-.6,1.3-1.4,3-2.7,5.3s-2.6,4.8-4.2,7.6l-5,8.9c-1.8,3-3.5,6-5.2,8.7l-1.9,3.2a53.7,53.7,0,0,1,8-5.1,25,25,0,0,1,8.2-2.5,5,5,0,0,1,3.4,1.3,15.5,15.5,0,0,1,3.1,3.6,15,15,0,0,1,1.7,4.6,6.8,6.8,0,0,1-.6,4.5,60.8,60.8,0,0,1-4.3,8.4c-1.8,2.8-3.4,5.4-4.9,7.9s-3,4.7-4.3,7a35.2,35.2,0,0,0-3.2,8.7,23.1,23.1,0,0,1-6.3-3.4,17.7,17.7,0,0,1-3.8-4,11.5,11.5,0,0,1-1.7-4,16.4,16.4,0,0,1-.2-3.8,16.9,16.9,0,0,1,1-3.4c.4-.9.9-1.7,1.2-2.3,1.9-2.4,3.4-4.5,4.6-6.3l3-4.4a39.4,39.4,0,0,1-5.7,6c-3.4,3-6.5,6-9.4,8.9a42,42,0,0,0-4.5,8.1,28,28,0,0,0-1.9,6.6,12.2,12.2,0,0,0,.3,6.1,11.1,11.1,0,0,0,2.4,4.4,9.6,9.6,0,0,0,3.8,2.6,11.9,11.9,0,0,0,4.5.8,20.5,20.5,0,0,0,9.8-3.3,47.2,47.2,0,0,0,9-7.3,79.5,79.5,0,0,0,8-9.4c2.4-3.3,4.6-6.4,6.5-9.3a1.9,1.9,0,0,1,1.9-.3,7.1,7.1,0,0,1,2.5,1.1,8.5,8.5,0,0,1,1.9,1.9,1.5,1.5,0,0,1,0,2v-.2Z" transform="translate(-5.5 -4.8)"/></svg>