<?xml version="1.0" encoding="utf-8"?>
<!-- Generator: Adobe Illustrator 24.2.1, SVG Export Plug-In . SVG Version: 6.00 Build 0)  -->
<svg version="1.1" xmlns="http://www.w3.org/2000/svg" xmlns:xlink="http://www.w3.org/1999/xlink" x="0px" y="0px"
	 viewBox="0 0 706.3 457.2" style="enable-background:new 0 0 706.3 457.2;" xml:space="preserve">
<style type="text/css">
	.st0{fill:none;stroke:#e4c172;stroke-width:5;stroke-linecap:round;stroke-linejoin:round;stroke-miterlimit:10;}
	.st1{display:none;fill:#231F20;stroke:#6263AD;stroke-width:7;stroke-miterlimit:10;}
	.st2{fill:#231F20;stroke:#468fea;stroke-width:7;stroke-miterlimit:10;}
	.st3{display:none;}
	.st4{display:inline;fill:#231F20;stroke:#FFFFFF;stroke-width:8;stroke-miterlimit:10;}
	.st5{fill:#e4c172;}
	.st6{display:inline;}
</style>
<g id="Layer_1">
	<g>
		<path class="st0" d="M369.3,89c-2.8,3.1-9,8.6-13.5,8.6c-19,0.1-15.8-15.9-25.5-10.8c-4.7,2.6-3.6,7.7-3,13.1
			c0.7,5.4,0.9,12.2-4.3,18.5c-0.8,0.9-1.9,1.8-2.8,2.5c-10.1,5.6-28.7-2.1-30.7,3.8c-2.9,8.8,11.4,5.9,11.7,13.5
			c0.4,4.7-4,6.1-8.5,6.1c2.9-1.4,7.2-2.8,6.7-5.7c-1.4-7.4-15.4-5.2-12.4-14.6c2.4-8,22.7,1.3,31.4-8l0,0c0,0,0.2-0.1,0.4-0.4
			c11-13.6,1-28.8,8.7-34.6c7.2-5.6,17.5,15.2,30.9,7.9c3.8-2,6.1-7.2,6.5-8.4c0.3-0.7,0.5-1,0.5-1.6 M369.3,89c1.2-1.3,2-2.2,2-2.2
			c-0.4,0.4-1.1,1.6-1.6,3.2 M466.9,212.7 M469,185.8 M444.3,285.6L444.3,285.6c0.1,0.3,0.2,0.5-0.1,0.6c-0.3,3,0.8,2.8,0.8,5.1
			c0.1,2.5-0.3,4.4-0.9,5.8c-0.7,1.1-3.6-0.4-4.6-0.8c-2.5-1.3-4.9-4.7-5.3-7.1c0-2.3,1.2-6.5-0.1-11.4c-1.2-4.7-1.9-5-2.4-9.3
			c-0.7-4,2.7-4.8,2.7-4.8s0.5-0.2,1.3-0.2l0,0c0.7-0.3,1.3-0.2,2.1-0.5c2-0.8,1.9-2.4,3.2-3.5c1.2-1.3,2.8-5.3,5-9.9
			c2.6-5.2,4.9-11.8,7.1-17.2c1.4-3.7,1.4-6.8,3.9-10c2.9-4.2,6.3-5,9.4-9c0.9-1.5,1.8-2.1,1.3-4.2c-0.2-1.9-2-2.9-3.8-3.4
			c-6.4-1.8-13-4.2-19.2-6.3c-3.9-1.3-8.8-3.7-12.4-5.5c-5.4-3.1-11.9-5.7-16.7-9.6c-2.8-2.1-4.5-4.3-5.1-7.4
			c-1.3-2.6-2.5-8.1-2.1-10.6c0.1-2.6,1-6.4,1.6-8.6c0.5-1.6,0.9-3.7,1.1-5.3c0.1-2-1.5-7.3-1.9-8.5 M437.9,146.2
			c0.7,2.6,1.6,8,2.3,9.7c0,0.8,1,6.1,1.2,7.2c5.8,4.6,12.9,10.2,17.5,14.1l0,0c1.7,1.4,3.3,2.7,4.8,4.4c2.1,1.8,5.6,4.1,9.8,7.7
			c4.1,3.3,7.2,5.5,9.9,8.2c0.8,0.6,1.5,1.7,2.1,2.6l2.8,7.5c0,0.8,0.2,1.3,0.3,2.2c0.4,1.8-0.9,3.5-0.9,3.5s-5,6.2-6.3,7.3
			c-0.9,0.6-2.1,1.1-4.3,4.5c-0.4,0.4-0.7,1.1-1.3,1.9c-5.5,8.7-19.7,28.3-21.8,31.7c-2.4,3.5-4.8,9-5.7,11.3
			c-1.5,2.8-1.5,5.7-2.7,8.7c-0.6,2.2-0.9,4.3-1.3,7 M447.8,102.9c0.3-0.1,0.2-0.3,0.4-0.4l0.1,0.2C448,102.8,448,102.8,447.8,102.9
			z M402.3,66.8c3.9,5,12.9,10.4,17.7,8.8l0,0c4.3-1.4,9-4.8,13.8-8.7c0.2-0.1,0.5-0.2,0.6-0.5l0,0c4.1-2.7,7.4-0.8,8.1,2.6
			c0.2,1.3,0.7,5.7,4.4,3.4c-3.8,4.3-4.9-0.1-5-1.2c-1.1-4.4-4.7-4.2-7-3.3c-0.7,0.3-1.1,0.7-1.6,0.9c-3.4,3-5.2,6.5-11.2,9.4
			c3.7,0,6.2-0.9,9.6-3.9c1.5-1.2,3.3-0.4,3.6,2.6c-1.5-1.7-2.4-2.5-4.1-1c-3.8,3.4-6.6,5.1-8.8,5.9c-2.4,1.2-8,2.1-10.6,1.9
			 M485.5,200.1l2.8,7.5c-0.4-1-0.6-2.3-1.3-4.1C486.9,203,486.3,201.5,485.5,200.1L485.5,200.1z M410.4,196.6 M408.6,164.9
			c-0.5-0.6-1.5-1.2-1.8-1.4c-0.8,0-7,1-8.4,1.8l0,0c-0.5,0.2-0.9,0.6-0.7,1.1c-0.1,2,3.7,10.5,8.3,18.8c0.1,0.3,0.1,0.3,0.2,0.5
			l0,0c1.2,2,2.7,3.5,4,5.1c-1,0.4-8.1,3.2-8.7,3.7 M394.4,196.9 M447.1,167.8c-0.5-3.5-1.4-12.4-1.1-13.6c0.2-0.9,1.3-2.5,2.6-3.6
			l0,0c1-1.2,2.1-1.9,3-1.7c2.2,0.6,6.9,18.1,9.2,22.7c1.8-2.1,6.5-8.4,8-11.3c0.3-0.7,0.5-1,0.8-1.7l0,0c0.9-2.1,1.5-9,1.8-11.1
			c0,0,9.5,0.9,22.2,11.3c13.3,10.9,15.8,20.8,18.6,29.7c2.8,8.9,4.6,18.8,6.6,28.5c1.9,10.1,4.3,20.3,6.8,26.7
			c2.6,6.7,6,15.7,11.7,24c3.7,6,10.9,12.1,17.3,16.2l0,0c2.6,1.6,5,2.6,7,3.3l0.3,0.7c-1.4,0-3.5-0.1-5.7-0.1
			c-8.2,0-21.4,0.7-35.5,4.7c-1.8,0.4-3.3,1-5.1,1.6c-3.8,1.2-7.5,2.6-10.9,3.6c-4.6,1.8-8.6,3.4-12.3,4.9 M561.7,287.2
			c0.7,0.3,1.3,0.4,1.9,0.4c2.2,0.6,1.4,0.6-1.6,0.3L561.7,287.2L561.7,287.2z M586.7,184.8c-1.7-4.1-13.7-11.9-17.3-16.2l0,0
			c-4.3-4.6-9.8-14-12.2-18.2 M390,173.9c-2.3-10.5,0.2-15.2,4-20c0.7-1.1,1.8-2.1,2.5-3.2c1.8-2.1,5.5-2.1,6.5,8.9
			c4.5-5.4,1.2-16.1,0-18.5 M369.7,90c-1.3,4.2-2.3,11.1-0.8,14.3c4.1,8.4-2.7,14.4,1.8,21.2c0.8,6.5-3.7,11.9-1.7,16.3
			c4.1,10.1-8.2,15.9-1.5,26.8c2.5,4.4,5.6,5,6.9,9.9 M389.1,101.3c0.5,2.9,1.1,4.4,2.5,6.5l0,0c0.9,1.6,4.3,6.1,4.9,7.5
			c1.1,2.1,1.2,4.7,2.1,7.7c1.2,5.5,3.1,16.4,4.6,17.9c1.1,1.3,3.7,2.9,4.7,2.7c1.2,0.1,3.9,0.5,6.9,0.8c3,0.5,9,1.1,13.3,1.2
			c4.1,0.2,8.5,0.7,11.8,0.3c2.4-0.4,4.7-0.4,6.9-0.6c0.6,0.1,1.1-0.1,1.7-0.1c2.5-0.1,6.3-1.3,9.5-2.8c2.4-1.2,3.5-1.9,4.6-2.9
			c0.2-0.3,0.4-0.4,0.8-0.9c0.2-0.1,2.5,0.5,3.7,0.9c-0.2,3.2-0.6,4.5-1.4,7.4c3.6-0.2,8.5,0.7,11.8,1.8c9.8,3.4,19.3,5.7,28.6,7
			c2,0.1,3.8,0.3,5.9,0.6c17.7,1.5,34.4-0.9,49.9-7.9c2.4-1.2,4.8-2.4,7.3-3.9c1.6-0.9,2.9-2,4.6-2.9c0.4-0.4,0.9-0.6,1.4-0.8
			c-0.8-0.6-1.6-1.1-2.2-1.4l0,0c-5.3-4.2-10-12.7-12.7-18.5 M560,121c-2.5,1.5-4.6,5.3-6.9,6.7l0,0c-15.5,9.3-30,16.7-46,16.6l0,0
			c-2-0.1-3.8-0.3-5.8-0.3l0,0c-10.9-1-21.4-3.8-30.8-8.4c0.5-1,0.2-4-0.7-4.9c-0.3-0.7-1-0.5-1.5-0.3c-1.1,0.1-3.6,0.2-4.4,0.5
			c-1,0.4-2.7,1.9-3.7,3.1l0,0c-0.4,0.4-0.9,0.6-1.1,1c-0.9,0.6-1.9,1-3.7,1.4c-4.4,1.1-8,1.4-11.8,1.1l0,0c-1.4,0-2.9,0-4.6-0.2
			c-4.4-0.3-10.9-1.8-14.5-3.6c-3.4-1.5-7.9-2.1-10.1-2.7c-1.3-0.4-1.7-3-2-4.6c-0.6-3.2-0.3-8.2-1.5-12.8
			c-1.5-4.6-2.8-9.5-2.7-11.5c0-0.8,0.6-3.6,0.3-6.7c0.2,1.9,1.2,3.2,2.2,3.4c-0.4,0.4-2.5,3-2.3,4.9 M434.6,136.7
			c-0.7-1.1-3.7-5.5-4-6.5c-0.9-3.1-0.7-6.3-0.7-8.6c0.1-2,0.4-6.4-0.1-8.5c-0.2-1.3-0.8-5.8-1.1-7.4l0,0c0.5-0.9,0.7-1.7,0.8-2.4
			c0.2-0.9,0.2-1.8,0.2-2.4c0.1-0.6-0.1-1.1-0.3-1.6c-0.3-1.6,0-1.4-0.3-2.2c-0.2-0.5-0.5-0.6-1-1.1c0,0-0.3-0.2-0.4-0.4l0,0
			c-0.4-0.4-1.2-1-2.7-1.8c-2.2-1.2-3.8-1.7-5.1-2.9c-2.4-2.5-5.1-4.3-7.8-7c-0.9-0.8-1.9-2.1-3.1-2.8c-1.2-1-1.8-1-2.6-1.6
			c-0.8-0.6-1.8-2.4-2-3.8c-0.2-1.3-0.9-5.4-1.4-6.6c-0.5-1.2-0.8-2-0.8-2.8c0.5-2.5,1.4-3.1,2.4-4.1c1.2-0.7,4.1-1.3,5-1.9
			c0.5-0.2,0.6-0.8,0.6-1.4c0.1-0.6-0.2-1.3-0.5-2.1c-0.4-0.4-0.5-0.6-0.8-1.4c-0.4-0.4,0.4-0.4-0.1-1.7c-0.1-0.3-0.6-0.9-0.7-1.2
			c-0.1-0.2-0.1-0.2-0.1-1.1c-0.2-0.5,0.4-0.4,0.1-1.2c-0.2-0.5-0.8-0.6-0.9-0.8c-0.4-0.4-0.8-0.6-0.2-1.3c0.1-0.6,2.2-0.9,1.8-2.1
			c-0.3-0.7-0.9-0.8-1.6-1.1c-0.4-0.4-0.4-0.4-1.8-1c-1.1-0.7-2.1-0.9-2.4-1.9c-0.3-0.7,0.1-0.6-0.3-1.6c-0.5-1.2-1.3-2.6-2-3.8
			c-0.8-0.6-2.8-3.8-3.4-3.8c-1.3-2.2-9-1.1-12.4,0.5c-3.6,1.7-9.1,5.2-10.9,9.6c-2.1,2.8-0.6,4.5-2.3,5.2
			c-3.9,2.4-3.2,8.1-0.8,10.6c2.2,2-0.6,5.1-1.7,6.6c-3.2,4.3-2.6,8.1-3.8,13.1l0,0 M469.8,130.6c0-3.1,1.8-11.8,5-17.6
			c-3.3,2.4-6.1,2.6-7,4.7c-1.1,2.4-3.9,4-5.7,4.5c3.2-4.3,3.1-7.5,3.5-10.2c0.2-1.8,2.3-5.2,6.5-8.4c4.2-3,4.9-7.3,5-7.9
			c-7.1,5.3-13.2,7.9-18.6,6.5c-4.1-1-6.5-1.5-10.1,0.4l-0.1-0.2l0,0c2-3.6,6.3-4.4,7.1-4.4c3.3,0.4,5.2,0.3,9.6-1.7
			c5.4-2.9,11.4-11.2,12.2-14.9c0.2-0.1,0.2-0.3,0.2-0.3l0,0c0.7-2.6,1.3-5.6,2.3-8.9c1.8-6.4,4.7-13.8,9.2-17.7
			c5.5-5,8.3-11.1,19.3-9.9c-6.3-3-10.1-1-11.7-0.1c-4.1,2.7-7.7,5.2-11.3,7.7c-2.4,1.8-9.4,0.7-11.9,2.3c-0.2,0.1-0.2,0.1-0.2,0.1
			c-2.5,1.8-2.7,3.3-3.8,4.9c-0.8,0.9-1.9,1.9-4.5,3.1c1.2-2.7,2.4-3.5,1.8-7.2c0-0.8-0.1-1.7,0.2-2.4l0,0c1-1.2,2.5-2.4,4.5-3.1
			l0,0c2.7-1,6.1-1.8,9.2-2.7c5-1.1,5-7,9.4-11.3c6.2-5.5,10.6-6.6,15.9-6.9c3.3-0.4,7.4,0.9,11,1.2l0,0c1.9,0.4,3.3,0.4,4.1-0.4
			c2-1.4-1.4-8-6.6-12c2.5-0.1,4.6,0.2,6.8,0.6l0,0c2.6,0.7,5,1.8,7.1,3.6l0,0c0.7,0.3,1.1,0.7,1.6,1.1c1.1-1.6,2.6-3,3.9-4l0,0
			c2.4-2.6,5-4.8,7.6-6.3 M540.9,12.6L540.9,12.6c9.3-5.5,18.9-5.8,26-5.1c-9,3.2-11.5,6.4-14.4,10.9c8.9-3.4,13.6-5.5,19.6-0.9
			c5,3.5,6.7,15.4,4.6,27.6c-0.9-12.8-6.2-19.3-10.2-20.9c-4.1-1.8-9.6,4.8-16.1,12.4c-0.9-6.2-1.9-11.7-6-14.4c0,0-0.2,0.3-0.4,0.4
			c-3.7,2.3-4.4,7.1-6,9.7c-0.6,0.8-0.9,1.5-1.2,2.2c-0.7,2-1.7,3.8-2.5,5.5c-0.7,2-1.4,3.7-1.8,5c0,0.8-0.6,1.4-1.4,1.7
			c-1.9,1-4.4,1.1-4.4,1.1c1.7,4.5,1.2,8.4,0.5,11.8 M561,25.6c1.2,3.8-3.1,16.5-0.4,18.3c1.6,1.1,3.8,6.9,3.8,6.9 M584.5,103.7
			l-8.4-21.9c-2.2-5.7,2.9-2,0.1-9.4c-1.8-4.7-4.2-2.1-5.8-5.5l-6.1-16 M584.5,103.7c0.9,1.6,8,16.6,7.4,20.2
			c-0.3,1.5-2.8,3.9-6.4,5.6c-2.6,1.3-5.8,1.9-8.6,0.7c-0.6-0.1-0.9-0.2-1.2-0.1c-4-1.6-5.4-3.6-6.1-5.6c-0.8-2-1.7-2.2-2.9-0.9
			c-0.3,0.1-6.3-2.4-6.7-2.6c-3.8-1.7-7.2-3.2-10.4-4c-2.2-0.6-4.6-0.8-6.7-0.3l5.6,13.7 M527.2,59.6c-1.1,3.8-0.2,3.8,0.1,5.3
			c0.2,5,3.2,9,3.9,14.7c-3,6.3-3.1,17.7-9.6,28.4c-4.7,7.8-12.3,21.8-17,26.7l-1.3,1.8c-0.8,0.9-7.8,6.5-8.3,6.7 M561.1,115.4
			 M566.1,121.8L566.1,121.8 M586.7,184.8c0.6-0.5,1.4-0.8,2.9-1.4l0,0c1-0.4,2-0.8,3.5-1.3c0.4-0.4,1.2-0.7,2.1-1.1l0,0
			c1.9-1,5-2.5,8.4-4.1l0,0c6.8-3.7,15.2-8.1,19.5-10.9c7.6-4.6,13.4-2.9,17.2-2c7.5,1.7,17.3,13.9,24.8,17.9
			c9.2,4.7,19.1,6.7,21,12.5c3.9,11,7.6,20.7,12.2,30.4c2.3,5.4-7,7.8-14.5,6.1c-5.4-3.1-9.4-4.4-10.4-6.3c-1-1.9,2.5-5.5,2-10.4
			c-0.1-3.1-4.4-10-8.8-15.5c-2.1-2.6-6.9-6.2-10.3-7.5c-2.3-0.8-7.3-2.6-16.7-5c-8.5-2.2-23.2,6.3-28.4,10.6
			c-0.4,0.4-0.8,0.9-1.3,1.1c-1.4,1.7-3.7,3.1-6.5,4.5c-1.9,1-3.5,1.9-5.5,2.7c-1.7,0.7-3.6,1.1-5.1,1.6l0,0
			c-0.6-0.1-7.5,3.3-7.7,3.4 M532.7,259.8c0,0,3.6-2.5,11.3-4l0,0c0.3-0.1,0.5-0.2,0.8-0.3c1.3-0.2,3,0.3,5.1,0.6
			c1.8,0.2,3.6,0.4,6,0c8.9-1.4,24.2-9.8,28.2-11.9c3.7-2.3,7.1-5.3,11.2-8c2-1.3,4.5-2.3,7.4-3.1c0,0,0,0,0.3,0.2
			c1.8-0.4,3.8-0.6,5.5-0.4c2.4,0.2,4.8,0.7,7,1.3c3.3,1.3,6.5,2.9,9.2,4.7c1.1,0.7,2.5,2.2,3.9,3.6c2.6,2.4,5.1,5.8,6.3,8.4
			c1.6,3.4,1.6,7.1,2.6,9c2,4.6,6.2,8.7,4.4,10.8c-0.6,0.8-1.2,1.3-2,1.6c-1.1,1-2.4,1.2-3.5,1.9c0,6,4.1,16.7,7.7,21
			c0.5,0.7,2.4,0.2,4.2-1c2.9-1.4,5.6-3.9,6.1-4.9c0.8-2.3,2-4.5,2.3-8.3c0.1-2-1.5-6.2,0-11.1c1.6-4.9,3.9-6.3,2.1-10.8
			c-1.1-3-3.3-5-5.1-6.6c-3.4-3-5.4-5.9-6.8-7.4c-2.1-3.2-6.3-10.7-11.3-16.2c-5.2-5.4-7.9-16.1-14.2-18.5c-1-0.5-2.7-0.4-5,0.2
			c-2.4,0.4-5.8,1.3-9.1,2.3l0,0c-2,0.8-3.7,1.4-5.7,2.2c-1.6,0.3-3.3,1-5,1.9l0,0c-2.7,1-5.2,2-7.7,2.9l0,0c-7.1,3-13,5.5-15.5,6.5
			c-6.7,2.6-9.9,2.4-9.9,0.1c-0.1-2.5,18.5-14.3,21.4-16.5"/>
	</g>
	<g>
		<path class="st1" d="M148.4,185.1c0.6-0.8,1.8-0.6,3.5,0.5c1.7,1.1,3.4,2.6,5.1,4.4c1.7,1.8,3.3,3.7,4.5,5.7
			c1.3,2,1.8,3.5,1.7,4.4l-6.1,13.1c-4.1,8.9-8.3,18-12.8,27.3c-4.4,9.3-9.2,18.2-14.3,26.9c-5.1,8.7-10.6,16.9-16.6,24.5
			c-5.9,7.7-12.4,14.4-19.4,20.2c-7,5.8-14.6,10.5-23,14c-8.3,3.5-17.4,5.4-27.2,5.8c-7.3,0.2-13.5-0.7-18.6-2.5
			c-5.1-1.8-9.2-4.4-12.3-7.6c-3.1-3.3-5.2-7.1-6.4-11.4c-1.2-4.3-1.4-8.9-0.8-13.7c0.9-6.3,3.2-12.7,7-19.2
			c3.7-6.5,8.8-12.5,15.3-17.8c-1-4.4-1.2-9.1-0.6-14.3c0.8-8.9,3-18.3,6.6-28.2c3.6-9.9,8.4-19.6,14.5-29.2
			c6-9.6,13-18.7,21.1-27.4c8.1-8.7,16.9-16.3,26.6-22.9c9.7-6.6,20-11.8,31-15.7c11-3.9,22.5-5.8,34.3-5.8c5,0,9.2,0.7,12.5,2.2
			c3.3,1.4,5.8,3.4,7.6,5.8c1.8,2.5,3,5.3,3.5,8.5c0.5,3.2,0.6,6.5,0.1,10c-0.4,3.2-1.2,6.5-2.4,9.8c-1.1,3.4-2.6,6.6-4.2,9.7
			c-1.7,3.1-3.5,6-5.5,8.7c-2,2.7-4.1,5.1-6.3,7.2l0.1-0.3c-0.9,1-2.7,1.7-5.3,2.2c-2.6,0.5-5.2,0.8-7.7,0.9
			c-2.9,0.1-5.3-0.3-7.3-1.1c-2-0.9-2.7-2.4-2.1-4.7l1.9-1.7c1.7-1.6,3.7-3.4,6-5.7c2.3-2.2,4.5-4.7,6.6-7.5c2.1-2.8,4-5.8,5.7-9.2
			c1.7-3.3,2.7-6.8,3-10.5c0.1-1.1,0.1-2.3-0.1-3.4c-0.2-1.2-0.6-2.2-1.2-3.2c-0.6-1-1.5-1.9-2.7-2.6c-1.1-0.7-2.6-1.1-4.4-1.2
			c-7.8,0.1-15.7,1.7-23.9,5c-8.2,3.2-16.1,7.6-23.8,13.2c-7.7,5.5-15.1,12-22.2,19.3c-7,7.3-13.4,15.2-19,23.5
			c-5.6,8.3-10.4,16.9-14.3,25.7c-3.9,8.8-6.6,17.5-8.1,25.9c-0.2,1.6-0.3,3.2-0.3,4.8c4.8-2,9.9-3.7,15.4-5
			c5.5-1.3,11.3-2,17.4-2.2c0.7,0,1.6-0.1,2.7-0.1c1,0,1.9,0,2.7,0c1,0.2,2.1,1.2,3.3,2.8c1.2,1.6,2.1,3.4,2.9,5.2
			c0.8,1.8,1.2,3.6,1.3,5.1c0.1,1.6-0.4,2.4-1.5,2.6c-3-0.4-5.9-0.6-8.7-0.8c-2.8-0.2-5.5-0.2-8.1-0.1c-4.8,0.2-9.2,0.7-13.2,1.6
			c-4,0.9-7.8,2-11.3,3.5c1.5,3.2,3.6,5.9,6.4,7.9s6.1,3.1,10,3.2c4.8-0.1,9.7-1,14.9-2.8c5.2-1.8,10.3-4.1,15.3-7
			c5-2.9,9.8-6.2,14.2-9.8c4.4-3.7,8.2-7.5,11.4-11.4l5.6-11.1c2.6-5.3,5.1-10.4,7.5-15.1c2.4-4.8,4.4-9,6.2-12.7
			c1.8-3.7,3.2-6.7,4.2-9.1c1-2.4,1.4-3.8,1.3-4.4L148.4,185.1z M66,284.1c-8.3,0.3-15.1-0.7-20.5-3.1c-5.4-2.3-9.5-5.6-12.5-9.7
			c-3.5,3.5-6.3,7.2-8.4,11.1c-2.1,3.9-3.4,7.8-3.9,11.8c-0.4,3.2-0.2,6.2,0.6,9c0.8,2.8,2.1,5.3,4.2,7.4c2,2.1,4.7,3.8,7.9,5
			c3.3,1.2,7.2,1.7,11.8,1.5c6.2-0.2,12.2-1.6,17.8-4.2c5.6-2.6,11-6,16.1-10.4c5.1-4.3,10-9.5,14.7-15.4
			c4.6-5.9,9.1-12.3,13.3-19.2c-3.3,2.1-6.7,4.1-10.1,6c-3.4,1.9-6.9,3.6-10.4,5.1c-3.5,1.5-7,2.6-10.5,3.5
			C72.7,283.5,69.3,284,66,284.1z"/>
		<path class="st1" d="M202.9,192.7c3.2,0.5,5.6,2,7.2,4.4c1.6,2.4,2.5,5.2,2.8,8.3c0.8,1.1,1.4,2.4,1.8,4c0.4,1.6,0.6,3.4,0.7,5.4
			c-0.1,0.6-0.2,1.3-0.2,1.9c0,0.6-0.1,1.4-0.2,2.3c-0.4,3.5-1.3,7-2.7,10.6c-1.4,3.6-3,7.1-5,10.5c-2,3.4-4.2,6.6-6.7,9.7
			c-2.5,3.1-5.2,5.8-8,8.1c-2.8,2.3-5.7,4.1-8.6,5.5c-3,1.4-5.8,2.1-8.6,2.2c-5.2,0.1-9.5-1.5-13-4.7c-3.5-3.2-5.4-8.4-5.8-15.4
			c0-0.9,0-1.8,0-2.8c0-1,0.1-2.1,0.2-3.2c0.4-3.5,1.4-7,3-10.7c1.6-3.7,3.5-7.3,5.7-10.8c2.3-3.5,4.9-6.9,7.9-10
			c3-3.1,6.1-5.9,9.4-8.2c3.3-2.3,6.6-4.1,10.1-5.4C196.2,193.1,199.6,192.6,202.9,192.7z M195.7,224.6c-0.6-0.2-1.1-0.8-1.3-1.6
			c-0.2-0.9-0.4-1.8-0.4-2.9c0-1.1,0-2.2,0.2-3.4c0.2-1.2,0.3-2.3,0.4-3.1c0.2-1,0.7-2.1,1.4-3.1c0.7-1,1.5-1.9,2.4-2.7
			c0.9-0.8,1.7-1.5,2.5-2.1c0.8-0.6,1.5-1,1.9-1.3c-0.2-0.2-0.8-0.2-1.7-0.2c-1.8,0.2-3.8,1-6,2.3c-2.3,1.3-4.4,2.9-6.4,4.8
			c-2.1,2.1-4,4.4-5.8,6.9c-1.8,2.5-3.3,5.1-4.7,7.8c-1.4,2.7-2.5,5.4-3.4,8c-0.9,2.6-1.5,5.1-1.7,7.3c-0.5,3.1-0.2,5.6,0.6,7.6
			c0.9,2,2.6,3.1,5.3,3.1c1.9,0,3.9-0.6,5.9-1.7c2-1.2,4-2.7,6-4.6c1.9-1.9,3.8-4.1,5.6-6.6c1.8-2.5,3.4-5.1,4.8-7.9
			c1.4-2.7,2.6-5.4,3.6-8.1c0.9-2.7,1.5-5.1,1.8-7.4l0.2-0.6c-0.6,0-1.4,0.3-2.2,0.9c-0.8,0.6-1.6,1.2-2.3,1.9
			c-0.7,0.7-1.4,1.5-2,2.4c-0.6,0.8-1,1.6-1.2,2.2L195.7,224.6z"/>
		<path class="st1" d="M268.5,234.7c-1.3,2.4-2.3,4.7-3.2,7.1c-0.8,2.4-1.4,4.4-1.6,6.1c-0.1,0.7-0.3,1.2-0.6,1.3l1.2,0
			c2.4-0.9,4.6-2.3,6.8-4.2c2.2-1.9,4.3-4.1,6.3-6.5c2-2.4,4-5,5.9-7.8c1.9-2.7,3.6-5.4,5.3-7.9c0.6-0.7,1.1-1.2,1.4-1.7
			c0.3-0.5,0.6-1,0.9-1.6c0.3-0.4,0.9-0.5,1.8-0.4c0.9,0.2,1.7,0.5,2.6,1.1c0.8,0.5,1.5,1.2,2,1.9c0.5,0.7,0.5,1.4,0.1,2l-3.3,4.9
			l0,0.1c-3.3,4.8-6.7,9.6-10.2,14.3c-3.6,4.7-7.5,9-12,12.8c-0.7,0.7-1.6,1.4-2.6,2.2c-1.1,0.8-2.2,1.6-3.5,2.3
			c-1.3,0.7-2.7,1.3-4.2,1.8c-1.5,0.5-3.1,0.7-4.7,0.7c-3.8-0.2-6.6-1.5-8.2-3.8c-1.6-2.3-2.3-5.3-2.1-8.9c-3.5,3.5-7,6.5-10.6,9.1
			c-3.6,2.6-7.1,3.9-10.4,4.1c-3-0.2-5.5-1-7.3-2.3c-1.8-1.3-3.2-2.9-4.2-4.8c-0.9-1.9-1.5-3.9-1.7-6.1c-0.2-2.2-0.2-4.3,0-6.2
			c0.3-1.8,0.6-3.2,0.9-4.4c0.7-3,1.9-6.3,3.6-9.9c1.7-3.6,3.8-7.2,6.2-10.8c2.4-3.6,5.1-7.1,8.1-10.5c3-3.4,6.1-6.4,9.5-9.1
			c3.3-2.7,6.8-4.8,10.3-6.5c3.5-1.6,7-2.5,10.5-2.6c1,0,2,0,3,0.1c1,0.1,2,0.3,3.1,0.6c2.2,0.7,3.9,2,5.1,3.8l1-1.6l4.3-7.1
			c1.9-3,3.7-6.2,5.5-9.4c1.8-3.3,3.4-6.5,4.9-9.6c1.5-3.1,2.9-6.1,4.1-9c1.2-2.9,2.3-5.5,3.1-7.9c1.2-0.7,2.7-0.7,4.4-0.1
			c1.8,0.6,3.4,1.6,4.9,3c1.5,1.3,2.6,3,3.4,4.9c0.8,1.9,0.8,3.7,0,5.5c-0.4,1-1.3,2.6-2.5,4.9c-1.2,2.3-2.6,4.9-4.2,7.7
			c-1.6,2.9-3.4,5.9-5.2,9c-1.9,3.1-3.6,6.1-5.3,8.9l-4,6.7l0.1-0.1c-3.2,5.2-6.4,10.5-9.5,16.1c-3.2,5.6-6.2,11.5-9,17.8
			L268.5,234.7z M234.8,248.4c1.1-0.4,2.6-1.3,4.3-2.9c1.8-1.5,3.6-3.4,5.6-5.5c1.9-2.1,3.8-4.3,5.7-6.7c1.9-2.3,3.5-4.5,4.9-6.4
			l1.9-4.1c2.6-5.5,5.5-10.9,8.7-16.3c-0.2-1.2-0.6-2.2-1.1-3.1c-0.6-0.9-1.5-1.3-2.9-1.5c-3,0-6,1.2-9,3.5c-3,2.3-5.9,5.2-8.7,8.6
			c-2.8,3.5-5.3,7.1-7.5,11.1c-2.2,3.9-4,7.5-5.2,10.6c-0.4,0.9-0.7,2-1.1,3.3c-0.4,1.3-0.6,2.6-0.7,3.9c-0.1,0.9-0.2,1.7-0.2,2.5
			c0,0.8,0.2,1.5,0.6,2c0.4,0.5,0.9,0.9,1.7,1C232.5,248.9,233.5,248.7,234.8,248.4z"/>
		<path class="st1" d="M306.7,189.9c1.2-0.6,2.6-0.6,4.2,0.2c1.6,0.7,3.1,1.8,4.3,3.2c1.3,1.4,2.2,3.1,2.7,5.1
			c0.5,1.9,0.3,3.9-0.6,5.7c0.2-0.2,0.1,0-0.2,0.5c-0.3,0.5-0.7,1.1-1.3,2c-0.5,0.8-1.1,1.8-1.8,2.8c-0.7,1.1-1.3,2-1.8,2.9
			c-1.4,2.1-2.9,4.5-4.5,7.1c-1.6,2.6-3.3,5.2-4.9,7.9c-1.6,2.7-3.2,5.3-4.7,7.8c-1.5,2.5-2.7,4.8-3.7,6.7c-1,2-1.7,3.5-2.2,4.7
			c-0.4,1.2-0.4,1.8,0.1,1.7l0.8,0c2.5-0.9,5-2.3,7.4-4.2c2.4-1.9,4.7-4,6.9-6.4c2.2-2.4,4.3-4.9,6.4-7.6c2.1-2.7,4.1-5.2,6-7.7
			l2.1-3c0.5-0.5,1.1-0.6,1.9-0.4c0.8,0.3,1.6,0.7,2.3,1.4c0.7,0.7,1.2,1.4,1.6,2.2c0.3,0.8,0.3,1.5-0.2,2.1l0.1-0.2
			c-3.8,5.3-8.1,10.8-12.9,16.3c-4.8,5.5-9.6,10.4-14.5,14.7c-0.8,0.6-1.7,1.3-2.9,2.1c-1.1,0.8-2.4,1.5-3.7,2.2
			c-1.3,0.7-2.8,1.3-4.3,1.8c-1.5,0.5-3,0.8-4.4,0.8c-3.1,0-5.3-1.1-6.4-3.4c-1.2-2.3-1.5-5.2-1.1-8.8c0.5-2.7,1.2-5.5,2.4-8.2
			l-0.1,0.1c1.5-4.1,3.6-8.8,6.4-14.2c2.8-5.4,5.7-10.8,8.7-16.2c2-3.7,3.8-7.2,5.7-10.7c1.8-3.5,3.4-6.6,4.7-9.5L306.7,189.9z
			 M323.7,152.6c1-0.2,2.1,0.3,3.5,1.5c1.4,1.2,2.7,2.6,3.9,4.2c1.2,1.6,2.2,3.2,3,4.8c0.8,1.6,1.2,2.8,1,3.5
			c-0.8,2.4-1.7,4.4-2.7,6.2c-1,1.8-2.1,3.6-3.1,5.5c-1.1,1.9-2.1,3.8-3.2,5.8s-2.2,4.2-3.2,6.8c-1-0.2-2-0.7-3.1-1.6
			c-1.1-0.9-2.1-1.9-3-3.1c-0.9-1.2-1.7-2.4-2.2-3.6c-0.6-1.3-0.8-2.3-0.7-3.2c0.3-1.6,0.8-3.4,1.4-5.3c0.6-1.9,1.3-4,2.1-6.1
			c0.8-2.1,1.6-4.3,2.3-6.4c0.7-2.2,1.3-4.3,1.7-6.3L323.7,152.6z"/>
		<path class="st1" d="M336,188.9c1.2-0.6,2.6-0.6,4.3,0.1c1.7,0.7,3.2,1.7,4.6,3.2c1.4,1.5,2.4,3.2,3.1,5.1
			c0.7,1.9,0.6,3.8-0.1,5.6c-0.4,0.9-1.2,2.3-2.2,4.3c-1,2-2.2,4.2-3.5,6.7c-1.7,3.3-3.6,6.8-5.6,10.7c-2,3.9-4,7.5-5.8,10.9
			c-1.8,3.4-3.4,6.2-4.7,8.6c-1.3,2.3-2.1,3.6-2.3,3.9c1.3-0.3,3.4-1.7,6.3-4.4c2.8-2.6,6-5.9,9.4-9.7c3.5-3.8,7-8.1,10.7-12.6
			c3.7-4.6,7.1-9,10.2-13.3c3.1-4.3,5.8-8.1,7.9-11.6c2.2-3.5,3.4-6.1,3.8-7.8c0.3-0.5,0.9-0.2,1.6,0.8c0.8,1,1.5,2.3,2.2,3.8
			c0.7,1.5,1.2,3.1,1.7,4.7c0.4,1.6,0.4,2.7-0.1,3.2c-2.1,2.8-4.6,6.2-7.6,10.3c-3,4.1-6.4,8.3-10,12.8c-3.6,4.5-7.5,8.9-11.5,13.4
			c-4,4.4-8,8.4-11.9,12c-3.9,3.6-7.7,6.5-11.5,8.7c-3.7,2.3-7.1,3.4-10.1,3.4c-2.3,0.1-4.2-0.8-5.6-2.7c-1.4-1.9-1.9-4.7-1.4-8.4
			c0.1-1.2,0.4-2.5,0.8-4c0.4-1.5,1-3,1.8-4.6c1-2.4,2.2-5.1,3.8-8.4c1.6-3.2,3.3-6.6,5.1-10.1c1.5-2.9,3-5.9,4.5-9
			c1.5-3.1,2.9-6.1,4.2-9c1.3-2.9,2.6-5.6,3.7-8.2c1.2-2.6,2.1-4.9,2.8-6.9L336,188.9z"/>
		<path class="st2" d="M426.1,206c-0.1,0.5-0.4,0.9-0.9,1.2c-0.5,0.3-1.1,0.5-1.8,0.7c-0.7,0.1-1.5,0.2-2.2,0.3
			c-0.8,0-1.4-0.1-2-0.3c1.1,0.7,2.2,1.5,3.2,2.4c1,0.9,1.8,2,2.5,3.1c0.7,1.1,1.1,2.3,1.4,3.5c0.2,1.2,0.1,2.4-0.3,3.5
			c-0.3,0.6-0.6,1.2-1,1.9c-0.4,0.7-0.8,1.4-1.1,2.1c-0.8,1.6-1.7,3.2-2.5,5c-0.9,1.8-1.7,3.5-2.4,5.2s-1.4,3.3-1.9,4.8
			c-0.5,1.5-0.9,2.8-1,3.8c0,0.2,0,0.3-0.2,0.4c-0.1,0.1-0.2,0.2-0.3,0.3l0.8,0c2.4-0.9,4.6-2.3,6.8-4.2c2.2-1.9,4.3-4.1,6.3-6.5
			c2-2.4,4-5,5.9-7.8c1.9-2.7,3.6-5.4,5.3-7.9c0.6-0.7,1.1-1.2,1.4-1.7c0.3-0.5,0.6-1,0.9-1.6c0.3-0.4,0.9-0.5,1.8-0.4
			c0.9,0.2,1.7,0.5,2.6,1.1c0.8,0.5,1.5,1.2,2,1.9c0.5,0.7,0.5,1.4,0.1,2l-3.3,4.9l0,0.1c-3.3,4.8-6.7,9.6-10.2,14.3
			c-3.6,4.7-7.5,9-12,12.8c-0.7,0.7-1.6,1.4-2.6,2.2c-1.1,0.8-2.2,1.6-3.5,2.3c-1.3,0.7-2.7,1.3-4.2,1.8c-1.5,0.5-3.1,0.7-4.7,0.7
			c-3.8-0.2-6.6-1.5-8.2-3.8c-1.6-2.3-2.3-5.3-2.1-8.9c-3.5,3.5-7,6.5-10.6,9.1c-3.6,2.6-7.1,3.9-10.4,4.1c-3-0.2-5.5-1-7.3-2.3
			c-1.8-1.3-3.2-2.9-4.2-4.8c-0.9-1.9-1.5-3.9-1.7-6.1c-0.2-2.2-0.2-4.3,0-6.2c0.3-1.8,0.6-3.2,0.9-4.4c0.7-3,1.9-6.3,3.6-9.9
			c1.7-3.6,3.8-7.2,6.2-10.8c2.4-3.6,5.1-7.1,8.1-10.5c3-3.4,6.1-6.4,9.5-9.1c3.3-2.7,6.8-4.8,10.3-6.5c3.5-1.6,7-2.5,10.5-2.6
			c1,0,2,0,3,0.1c1,0.1,2,0.3,3.1,0.6c1.9,0.6,3.4,1.5,4.5,2.9c1,1.4,1.8,3,2.2,4.8c0.4,1.9,0.6,3.9,0.6,6
			C426.8,201.8,426.5,203.9,426.1,206z M412.1,206.5c0.8-0.4,1.7-0.5,2.8-0.3c1.1,0.2,2.2,2.9,3.3,1.2c2.1-1.2-0.5-0.8-0.4-1.3
			c0.1-0.2,0.1-0.5,0-0.8c-0.1-0.3,0-0.6,0-1c0-0.8,0.1-1.6,0-2.5c0-0.9-0.2-1.7-0.4-2.4c-0.3-0.8-0.7-1.4-1.3-1.8
			c-0.6-0.5-1.3-0.7-2.3-0.8c-3,0-6,1.2-9,3.5c-3,2.3-5.9,5.2-8.7,8.6c-2.8,3.5-5.3,7.1-7.5,11.1c-2.2,3.9-4,7.5-5.2,10.6
			c-0.4,0.9-0.7,2-1.1,3.3c-0.4,1.3-0.6,2.6-0.7,3.9c-0.1,0.9-0.2,1.7-0.2,2.5c0,0.8,0.2,1.5,0.6,2c0.4,0.5,0.9,0.9,1.7,1
			c0.7,0.1,1.7,0,3-0.3c1.2-0.4,2.7-1.3,4.5-2.9c1.8-1.6,3.7-3.4,5.6-5.5c2-2.1,3.9-4.4,5.8-6.7c1.9-2.4,3.5-4.5,4.8-6.4
			c1.1-2.4,2.1-4.8,3.1-7.1c0.9-2.3,1.5-4.3,1.9-5.9L412.1,206.5z"/>
	</g>
	<g class="st3">
		<path class="st4" d="M266.5,298.5c1-1.2,2.2-1.8,3.5-1.8c1.4,0,2.7,0.3,4,1c1.3,0.7,2.6,1.8,3.8,3.1c1.2,1.3,2.2,2.7,3,4.2
			c0.8,1.5,1.3,3.1,1.6,4.6c0.3,1.6,0.1,3-0.5,4.2c-3,5.6-6.5,11.8-10.5,18.4c-4,6.7-8.3,13.6-12.7,20.6c-4.5,7.1-9,14.1-13.5,21.1
			c-4.5,7-8.8,13.5-12.8,19.6c-3.3,5.1-6.4,9.8-9.2,14.2c-2.9,4.4-5.4,8.3-7.5,11.6c-2.1,3.3-3.8,6.1-5,8.2c-1.2,2.1-1.9,3.4-2,3.8
			l0.1,0.1c8.6-5.8,17.2-12.4,25.8-19.7c8.6-7.4,17.1-15.2,25.4-23.6c8.3-8.4,16.4-17.2,24.3-26.3c7.8-9.2,15.3-18.6,22.2-28.1
			c7-9.5,13.4-19.1,19.2-28.8c5.9-9.7,11-19.2,15.3-28.6c0.7-1.1,1.8-1.1,3.4-0.2c1.5,0.9,3,2.3,4.6,4c1.5,1.8,2.7,3.6,3.7,5.6
			c1,2,1.2,3.5,0.8,4.5c-3.2,6.3-7.4,13.3-12.6,21c-5.1,7.7-11,15.7-17.4,24c-6.5,8.3-13.4,16.7-20.8,25.3
			c-7.4,8.6-14.9,16.9-22.6,24.9c-7.7,8-15.3,15.6-22.9,22.7c-7.6,7.1-14.8,13.4-21.6,18.8c-6.8,5.4-13.1,9.8-18.7,13.1
			c-5.7,3.3-10.4,5.2-14.2,5.8c-1.9,0-3.6-0.5-5.3-1.4c-1.7-0.9-3.1-2.2-4.3-3.8c-1.2-1.6-2.1-3.4-2.7-5.4c-0.6-2-0.8-4.1-0.4-6.4
			l2.6-5.7c-4.9,4.9-9.6,9.1-14.2,12.6c-4.6,3.5-8.7,5.7-12.3,6.8l0.1-0.1c-2.7,0.7-5.2,1.2-7.5,1.2c-3.4,0.1-6.2-0.4-8.4-1.7
			c-2.2-1.2-4-2.9-5.2-5.1c-1.2-2.2-2.1-4.7-2.4-7.6c-0.4-2.9-0.4-6,0.1-9.3c0.1-1.4,0.3-2.8,0.6-4.1c0.3-1.3,0.6-2.6,1.1-4
			c1.5-4.3,3.6-9.3,6.1-14.8c2.6-5.5,5.5-11.3,8.9-17.5c3.4-6.1,7.1-12.5,11.2-19.2c4.1-6.6,8.3-13.4,12.8-20.2
			c4.5-6.8,9.1-13.6,13.8-20.3c4.7-6.7,9.4-13.2,14.2-19.5c-6.7,1-13.4,2.8-20.3,5.5c-6.8,2.7-13.4,5.9-19.7,9.7
			c-6.3,3.8-12.3,7.9-17.8,12.5c-5.6,4.6-10.5,9.2-14.7,13.8c-4.2,4.6-7.6,9.2-10.2,13.6c-2.6,4.4-4,8.4-4.3,12l-0.9,2
			c-0.6,0.8-1.9,1-3.8,0.6c-1.9-0.4-3.8-1.3-5.7-2.7c-1.9-1.4-3.5-3.3-4.7-5.5c-1.2-2.2-1.4-4.9-0.6-7.9c2.8-7.7,6.7-14.7,11.6-21.1
			c4.9-6.4,10.4-12.2,16.4-17.5c6-5.2,12.5-9.8,19.3-13.8c6.8-4,13.6-7.4,20.2-10.1c6.7-2.7,13.1-4.8,19.3-6.3
			c6.2-1.5,11.6-2.3,16.4-2.5c1.2,0,2.4-0.1,3.5-0.1c1.1,0,2.1,0,3.1,0.2c1.8,0.2,3.5,0.9,5.2,2.1c1.7,1.2,3.1,2.6,4.4,4.2
			c1.3,1.6,2.3,3.4,3,5.1c0.7,1.8,1,3.4,0.7,4.9c-0.2,1-1,2.7-2.1,5c-1.2,2.3-2.7,5-4.7,8.2c-1.9,3.2-4.1,6.7-6.6,10.6
			c-2.4,3.9-5,7.9-7.6,12c-3.3,5.1-6.7,10.4-10.4,16.1c-3.6,5.6-7.2,11.3-10.8,17c-3.5,5.7-6.9,11.4-10.1,17
			c-3.2,5.6-6.1,10.8-8.7,15.8c-2.6,4.9-4.7,9.5-6.4,13.6c-1.7,4.1-2.7,7.6-3.1,10.4c-0.2,1.8,0.1,3.1,0.9,4
			c0.8,0.9,2.3,1.1,4.4,0.5c3.3-1,7.1-3.3,11.3-6.8c4.2-3.5,8.6-7.7,13.1-12.7c4.5-5,9-10.4,13.7-16.2c4.6-5.8,9-11.6,13.1-17.3
			c4.1-5.7,7.9-11.1,11.4-16.1c3.5-5,6.3-9.2,8.5-12.6l0.5-0.6c4.3-6.6,8.4-13.3,12.5-20.1c4.1-6.8,8.2-13.8,12.2-21.2
			c0-0.1,0.1-0.4,0.4-0.9c0.3-0.5,0.5-1.1,0.8-1.7c0.3-0.6,0.5-1.2,0.8-1.7c0.3-0.5,0.4-0.9,0.4-1.1L266.5,298.5z"/>
		<path class="st4" d="M346.9,369.7c-4.5,7.4-10,13.6-16.3,18.6c-6.3,5-13.2,8.8-20.6,11.4c-0.2,2.2,0,4.2,0.6,6.1
			c0.6,1.9,1.8,3,3.7,3.4L314,409c1.5,0.3,3.4,0.2,5.6-0.6c2.2-0.7,4.5-1.9,7.1-3.7c2.5-1.7,5.2-4,8-6.7c2.8-2.7,5.6-6,8.3-9.7
			c1.5-2,2.8-4,4.2-6.1c1.3-2.1,2.6-4.1,3.8-6c0.8-1.1,1.8-1.7,2.9-1.8c1.1-0.1,2,0.1,2.8,0.7c0.8,0.6,1.3,1.4,1.5,2.5
			c0.2,1.1-0.1,2.3-1,3.7l-2.8,4.4c-2.4,3.7-5.4,7.8-8.9,12.3c-3.5,4.5-7.5,8.8-12,13.1c-2.6,2.3-5.2,4.2-7.7,5.5
			c-2.5,1.3-4.8,2.3-7,3s-4.1,1.1-5.8,1.3c-1.7,0.2-3.1,0.3-4,0.3c-6.2,0.2-10.8-1.4-13.7-4.9c-2.9-3.5-4-8.4-3.5-14.6
			c0.5-5.5,2.1-10.8,4.7-16.1c2.6-5.3,6.3-11.1,11.1-17.3c1.7-2.1,3.8-4.3,6.4-6.6c2.6-2.4,5.4-4.6,8.4-6.6c3.1-2,6.3-3.7,9.6-5
			c3.4-1.3,6.6-2,9.7-2c3.3,0,5.8,1,7.6,3c1.8,2.1,2.4,4.9,1.9,8.5c-0.2,1.6-0.6,3.2-1.3,4.9c-0.7,1.7-1.7,3.4-3,5.3L346.9,369.7z
			 M340.3,360.1c-2.9,0.7-5.7,2-8.4,4.1c-2.7,2.1-5.3,4.5-7.7,7.4c-2.4,2.8-4.6,5.8-6.5,8.9c-2,3.2-3.6,6.1-4.9,8.9
			c5.6-2.5,10.8-5.8,15.5-10c4.7-4.1,8.7-9,12-14.6l0,0.1c0.5-0.7,0.8-1.3,1-2c0.2-0.6,0.3-1.2,0.5-1.7
			C341.9,360.1,341.4,359.7,340.3,360.1z"/>
		<path class="st4" d="M396.4,367.9c-4.5,7.4-10,13.6-16.3,18.6c-6.3,5-13.2,8.8-20.6,11.4c-0.2,2.2,0,4.2,0.6,6.1
			c0.6,1.9,1.8,3,3.7,3.4l-0.2-0.1c1.5,0.3,3.4,0.2,5.6-0.6c2.2-0.7,4.5-1.9,7.1-3.7c2.5-1.7,5.2-4,8-6.7c2.8-2.7,5.6-6,8.3-9.7
			c1.5-2,2.8-4,4.2-6.1c1.3-2.1,2.6-4.1,3.8-6c0.8-1.1,1.8-1.7,2.9-1.8c1.1-0.1,2,0.1,2.8,0.7c0.8,0.6,1.3,1.4,1.5,2.5
			c0.2,1.1-0.1,2.3-1,3.7l-2.8,4.4c-2.4,3.7-5.4,7.8-8.9,12.3c-3.5,4.5-7.5,8.8-12,13.1c-2.6,2.3-5.2,4.2-7.7,5.5
			c-2.5,1.3-4.8,2.3-7,3c-2.1,0.7-4.1,1.1-5.8,1.3c-1.7,0.2-3.1,0.3-4,0.3c-6.2,0.2-10.8-1.4-13.7-4.9c-2.9-3.5-4-8.4-3.5-14.6
			c0.5-5.5,2.1-10.8,4.7-16.1c2.6-5.3,6.3-11.1,11.1-17.3c1.7-2.1,3.8-4.3,6.4-6.6c2.6-2.4,5.4-4.6,8.4-6.6c3.1-2,6.3-3.7,9.6-5
			c3.4-1.3,6.6-2,9.7-2c3.3,0,5.8,1,7.6,3c1.8,2.1,2.4,4.9,1.9,8.5c-0.2,1.6-0.6,3.2-1.3,4.9c-0.7,1.7-1.7,3.4-3,5.3L396.4,367.9z
			 M389.8,358.3c-2.9,0.7-5.7,2-8.4,4.1c-2.7,2.1-5.3,4.5-7.7,7.4c-2.4,2.8-4.6,5.8-6.5,8.9c-2,3.2-3.6,6.1-4.9,8.9
			c5.6-2.5,10.8-5.8,15.5-10c4.7-4.1,8.7-9,12-14.6l0,0.1c0.5-0.7,0.8-1.3,1-2c0.2-0.6,0.3-1.2,0.5-1.7
			C391.4,358.3,390.9,358,389.8,358.3z"/>
		<path class="st4" d="M463.6,379.6c-2.6,3.8-5.5,7.8-8.6,12.2c-3.1,4.4-6.5,8.4-10.1,12.1c-3.6,3.7-7.4,6.8-11.5,9.3
			c-4.1,2.5-8.4,3.8-12.8,4c-4.4,0-8-1.4-10.7-4.2c-2.7-2.8-4.5-6.3-5.5-10.6c-0.7,2-1.4,4-2,6c-0.6,2-1.1,4-1.5,6
			c-0.3,0.9-1.1,1.3-2.5,1.3c-1.4,0-2.8-0.4-4.3-1c-1.5-0.6-2.9-1.4-4-2.4c-1.2-1-1.8-2-1.7-3.1c0.9-4.9,2.2-9.9,4-14.9
			c1.8-5,3.9-10.1,6.3-15.1c2.4-5,5-10.1,7.8-15.2c2.8-5.1,5.6-10.1,8.4-15.1l4.5-7.8c1.7-3.1,3.4-6.3,5.1-9.5
			c1.7-3.2,3.3-6.4,4.8-9.5c1.5-3.1,2.9-6.1,4.2-9c1.3-2.9,2.4-5.5,3.3-8c1.3-0.7,2.8-0.7,4.5-0.1c1.7,0.6,3.3,1.6,4.8,3
			s2.6,3,3.4,4.9c0.8,1.9,0.8,3.7,0.2,5.5c-0.5,1.2-1.4,3-2.6,5.3c-1.2,2.3-2.7,4.8-4.2,7.7c-1.6,2.8-3.3,5.8-5,8.8
			c-1.8,3.1-3.5,6-5.2,8.8l-1.9,3.2c2.7-2,5.3-3.7,8-5.1c2.7-1.4,5.4-2.2,8.1-2.6c1.1,0,2.3,0.4,3.5,1.4c1.2,1,2.2,2.1,3.1,3.6
			c0.8,1.4,1.4,3,1.7,4.6c0.3,1.7,0.1,3.2-0.6,4.5c-1.2,2.8-2.6,5.6-4.4,8.4c-1.7,2.8-3.4,5.5-4.9,7.9c-1.5,2.4-2.9,4.7-4.3,7.1
			c-1.3,2.3-2.4,5.2-3.2,8.7c-2.6-1-4.7-2.2-6.3-3.4c-1.6-1.3-2.9-2.6-3.7-4c-0.9-1.4-1.5-2.7-1.7-4c-0.2-1.3-0.3-2.6-0.2-3.8
			c0.2-1.3,0.5-2.4,1-3.4c0.4-1,0.9-1.8,1.2-2.3c1.8-2.4,3.4-4.5,4.6-6.3c1.2-1.8,2.2-3.3,3-4.4c-1.5,2-3.3,4-5.7,6
			c-3.4,3-6.6,6-9.4,9c-2,2.9-3.5,5.5-4.5,8c-1,2.5-1.7,4.7-2,6.6c-0.3,2.3-0.2,4.4,0.3,6.1c0.5,1.7,1.4,3.2,2.4,4.4
			c1.1,1.2,2.4,2.1,3.8,2.6c1.5,0.5,2.9,0.8,4.5,0.7c3.4-0.2,6.6-1.3,9.8-3.3c3.2-2,6.2-4.4,9-7.3c2.9-2.9,5.5-6,8-9.3
			c2.4-3.3,4.6-6.4,6.5-9.3c0.4-0.4,1-0.5,1.9-0.3c0.9,0.2,1.7,0.6,2.5,1.1c0.8,0.5,1.4,1.2,1.9,1.9c0.5,0.7,0.5,1.4,0,2l0.1-0.2
			L463.6,379.6z"/>
	</g>
	<g>
		<path class="st5" d="M148.4,185.1c0.6-0.8,1.8-0.6,3.5,0.5c1.7,1.1,3.4,2.6,5.1,4.4c1.7,1.8,3.3,3.7,4.5,5.7
			c1.3,2,1.8,3.5,1.7,4.4l-6.1,13.1c-4.1,8.9-8.3,18-12.8,27.3c-4.4,9.3-9.2,18.2-14.3,26.9c-5.1,8.7-10.6,16.9-16.6,24.5
			c-5.9,7.7-12.4,14.4-19.4,20.2c-7,5.8-14.6,10.5-23,14c-8.3,3.5-17.4,5.4-27.2,5.8c-7.3,0.2-13.5-0.7-18.6-2.5
			c-5.1-1.8-9.2-4.4-12.3-7.6c-3.1-3.3-5.2-7.1-6.4-11.4c-1.2-4.3-1.4-8.9-0.8-13.7c0.9-6.3,3.2-12.7,7-19.2
			c3.7-6.5,8.8-12.5,15.3-17.8c-1-4.4-1.2-9.1-0.6-14.3c0.8-8.9,3-18.3,6.6-28.2c3.6-9.9,8.4-19.6,14.5-29.2
			c6-9.6,13-18.7,21.1-27.4c8.1-8.7,16.9-16.3,26.6-22.9c9.7-6.6,20-11.8,31-15.7c11-3.9,22.5-5.8,34.3-5.8c5,0,9.2,0.7,12.5,2.2
			c3.3,1.4,5.8,3.4,7.6,5.8c1.8,2.5,3,5.3,3.5,8.5c0.5,3.2,0.6,6.5,0.1,10c-0.4,3.2-1.2,6.5-2.4,9.8c-1.1,3.4-2.6,6.6-4.2,9.7
			c-1.7,3.1-3.5,6-5.5,8.7c-2,2.7-4.1,5.1-6.3,7.2l0.1-0.3c-0.9,1-2.7,1.7-5.3,2.2c-2.6,0.5-5.2,0.8-7.7,0.9
			c-2.9,0.1-5.3-0.3-7.3-1.1c-2-0.9-2.7-2.4-2.1-4.7l1.9-1.7c1.7-1.6,3.7-3.4,6-5.7c2.3-2.2,4.5-4.7,6.6-7.5c2.1-2.8,4-5.8,5.7-9.2
			c1.7-3.3,2.7-6.8,3-10.5c0.1-1.1,0.1-2.3-0.1-3.4c-0.2-1.2-0.6-2.2-1.2-3.2c-0.6-1-1.5-1.9-2.7-2.6c-1.1-0.7-2.6-1.1-4.4-1.2
			c-7.8,0.1-15.7,1.7-23.9,5c-8.2,3.2-16.1,7.6-23.8,13.2c-7.7,5.5-15.1,12-22.2,19.3c-7,7.3-13.4,15.2-19,23.5
			c-5.6,8.3-10.4,16.9-14.3,25.7c-3.9,8.8-6.6,17.5-8.1,25.9c-0.2,1.6-0.3,3.2-0.3,4.8c4.8-2,9.9-3.7,15.4-5
			c5.5-1.3,11.3-2,17.4-2.2c0.7,0,1.6-0.1,2.7-0.1c1,0,1.9,0,2.7,0c1,0.2,2.1,1.2,3.3,2.8c1.2,1.6,2.1,3.4,2.9,5.2
			c0.8,1.8,1.2,3.6,1.3,5.1c0.1,1.6-0.4,2.4-1.5,2.6c-3-0.4-5.9-0.6-8.7-0.8c-2.8-0.2-5.5-0.2-8.1-0.1c-4.8,0.2-9.2,0.7-13.2,1.6
			c-4,0.9-7.8,2-11.3,3.5c1.5,3.2,3.6,5.9,6.4,7.9s6.1,3.1,10,3.2c4.8-0.1,9.7-1,14.9-2.8c5.2-1.8,10.3-4.1,15.3-7
			c5-2.9,9.8-6.2,14.2-9.8c4.4-3.7,8.2-7.5,11.4-11.4l5.6-11.1c2.6-5.3,5.1-10.4,7.5-15.1c2.4-4.8,4.4-9,6.2-12.7
			c1.8-3.7,3.2-6.7,4.2-9.1c1-2.4,1.4-3.8,1.3-4.4L148.4,185.1z M66,284.1c-8.3,0.3-15.1-0.7-20.5-3.1c-5.4-2.3-9.5-5.6-12.5-9.7
			c-3.5,3.5-6.3,7.2-8.4,11.1c-2.1,3.9-3.4,7.8-3.9,11.8c-0.4,3.2-0.2,6.2,0.6,9c0.8,2.8,2.1,5.3,4.2,7.4c2,2.1,4.7,3.8,7.9,5
			c3.3,1.2,7.2,1.7,11.8,1.5c6.2-0.2,12.2-1.6,17.8-4.2c5.6-2.6,11-6,16.1-10.4c5.1-4.3,10-9.5,14.7-15.4
			c4.6-5.9,9.1-12.3,13.3-19.2c-3.3,2.1-6.7,4.1-10.1,6c-3.4,1.9-6.9,3.6-10.4,5.1c-3.5,1.5-7,2.6-10.5,3.5
			C72.7,283.5,69.3,284,66,284.1z"/>
		<path class="st5" d="M202.9,192.7c3.2,0.5,5.6,2,7.2,4.4c1.6,2.4,2.5,5.2,2.8,8.3c0.8,1.1,1.4,2.4,1.8,4c0.4,1.6,0.6,3.4,0.7,5.4
			c-0.1,0.6-0.2,1.3-0.2,1.9c0,0.6-0.1,1.4-0.2,2.3c-0.4,3.5-1.3,7-2.7,10.6c-1.4,3.6-3,7.1-5,10.5c-2,3.4-4.2,6.6-6.7,9.7
			c-2.5,3.1-5.2,5.8-8,8.1c-2.8,2.3-5.7,4.1-8.6,5.5c-3,1.4-5.8,2.1-8.6,2.2c-5.2,0.1-9.5-1.5-13-4.7c-3.5-3.2-5.4-8.4-5.8-15.4
			c0-0.9,0-1.8,0-2.8c0-1,0.1-2.1,0.2-3.2c0.4-3.5,1.4-7,3-10.7c1.6-3.7,3.5-7.3,5.7-10.8c2.3-3.5,4.9-6.9,7.9-10
			c3-3.1,6.1-5.9,9.4-8.2c3.3-2.3,6.6-4.1,10.1-5.4C196.2,193.1,199.6,192.6,202.9,192.7z M195.7,224.6c-0.6-0.2-1.1-0.8-1.3-1.6
			c-0.2-0.9-0.4-1.8-0.4-2.9c0-1.1,0-2.2,0.2-3.4c0.2-1.2,0.3-2.3,0.4-3.1c0.2-1,0.7-2.1,1.4-3.1c0.7-1,1.5-1.9,2.4-2.7
			c0.9-0.8,1.7-1.5,2.5-2.1c0.8-0.6,1.5-1,1.9-1.3c-0.2-0.2-0.8-0.2-1.7-0.2c-1.8,0.2-3.8,1-6,2.3c-2.3,1.3-4.4,2.9-6.4,4.8
			c-2.1,2.1-4,4.4-5.8,6.9c-1.8,2.5-3.3,5.1-4.7,7.8c-1.4,2.7-2.5,5.4-3.4,8c-0.9,2.6-1.5,5.1-1.7,7.3c-0.5,3.1-0.2,5.6,0.6,7.6
			c0.9,2,2.6,3.1,5.3,3.1c1.9,0,3.9-0.6,5.9-1.7c2-1.2,4-2.7,6-4.6c1.9-1.9,3.8-4.1,5.6-6.6c1.8-2.5,3.4-5.1,4.8-7.9
			c1.4-2.7,2.6-5.4,3.6-8.1c0.9-2.7,1.5-5.1,1.8-7.4l0.2-0.6c-0.6,0-1.4,0.3-2.2,0.9c-0.8,0.6-1.6,1.2-2.3,1.9
			c-0.7,0.7-1.4,1.5-2,2.4c-0.6,0.8-1,1.6-1.2,2.2L195.7,224.6z"/>
		<path class="st5" d="M268.5,234.7c-1.3,2.4-2.3,4.7-3.2,7.1c-0.8,2.4-1.4,4.4-1.6,6.1c-0.1,0.7-0.3,1.2-0.6,1.3l1.2,0
			c2.4-0.9,4.6-2.3,6.8-4.2c2.2-1.9,4.3-4.1,6.3-6.5c2-2.4,4-5,5.9-7.8c1.9-2.7,3.6-5.4,5.3-7.9c0.6-0.7,1.1-1.2,1.4-1.7
			c0.3-0.5,0.6-1,0.9-1.6c0.3-0.4,0.9-0.5,1.8-0.4c0.9,0.2,1.7,0.5,2.6,1.1c0.8,0.5,1.5,1.2,2,1.9c0.5,0.7,0.5,1.4,0.1,2l-3.3,4.9
			l0,0.1c-3.3,4.8-6.7,9.6-10.2,14.3c-3.6,4.7-7.5,9-12,12.8c-0.7,0.7-1.6,1.4-2.6,2.2c-1.1,0.8-2.2,1.6-3.5,2.3
			c-1.3,0.7-2.7,1.3-4.2,1.8c-1.5,0.5-3.1,0.7-4.7,0.7c-3.8-0.2-6.6-1.5-8.2-3.8c-1.6-2.3-2.3-5.3-2.1-8.9c-3.5,3.5-7,6.5-10.6,9.1
			c-3.6,2.6-7.1,3.9-10.4,4.1c-3-0.2-5.5-1-7.3-2.3c-1.8-1.3-3.2-2.9-4.2-4.8c-0.9-1.9-1.5-3.9-1.7-6.1c-0.2-2.2-0.2-4.3,0-6.2
			c0.3-1.8,0.6-3.2,0.9-4.4c0.7-3,1.9-6.3,3.6-9.9c1.7-3.6,3.8-7.2,6.2-10.8c2.4-3.6,5.1-7.1,8.1-10.5c3-3.4,6.1-6.4,9.5-9.1
			c3.3-2.7,6.8-4.8,10.3-6.5c3.5-1.6,7-2.5,10.5-2.6c1,0,2,0,3,0.1c1,0.1,2,0.3,3.1,0.6c2.2,0.7,3.9,2,5.1,3.8l1-1.6l4.3-7.1
			c1.9-3,3.7-6.2,5.5-9.4c1.8-3.3,3.4-6.5,4.9-9.6c1.5-3.1,2.9-6.1,4.1-9c1.2-2.9,2.3-5.5,3.1-7.9c1.2-0.7,2.7-0.7,4.4-0.1
			c1.8,0.6,3.4,1.6,4.9,3c1.5,1.3,2.6,3,3.4,4.9c0.8,1.9,0.8,3.7,0,5.5c-0.4,1-1.3,2.6-2.5,4.9c-1.2,2.3-2.6,4.9-4.2,7.7
			c-1.6,2.9-3.4,5.9-5.2,9c-1.9,3.1-3.6,6.1-5.3,8.9l-4,6.7l0.1-0.1c-3.2,5.2-6.4,10.5-9.5,16.1c-3.2,5.6-6.2,11.5-9,17.8
			L268.5,234.7z M234.8,248.4c1.1-0.4,2.6-1.3,4.3-2.9c1.8-1.5,3.6-3.4,5.6-5.5c1.9-2.1,3.8-4.3,5.7-6.7c1.9-2.3,3.5-4.5,4.9-6.4
			l1.9-4.1c2.6-5.5,5.5-10.9,8.7-16.3c-0.2-1.2-0.6-2.2-1.1-3.1c-0.6-0.9-1.5-1.3-2.9-1.5c-3,0-6,1.2-9,3.5c-3,2.3-5.9,5.2-8.7,8.6
			c-2.8,3.5-5.3,7.1-7.5,11.1c-2.2,3.9-4,7.5-5.2,10.6c-0.4,0.9-0.7,2-1.1,3.3c-0.4,1.3-0.6,2.6-0.7,3.9c-0.1,0.9-0.2,1.7-0.2,2.5
			c0,0.8,0.2,1.5,0.6,2c0.4,0.5,0.9,0.9,1.7,1C232.5,248.9,233.5,248.7,234.8,248.4z"/>
		<path class="st5" d="M306.7,189.9c1.2-0.6,2.6-0.6,4.2,0.2c1.6,0.7,3.1,1.8,4.3,3.2c1.3,1.4,2.2,3.1,2.7,5.1
			c0.5,1.9,0.3,3.9-0.6,5.7c0.2-0.2,0.1,0-0.2,0.5c-0.3,0.5-0.7,1.1-1.3,2c-0.5,0.8-1.1,1.8-1.8,2.8c-0.7,1.1-1.3,2-1.8,2.9
			c-1.4,2.1-2.9,4.5-4.5,7.1c-1.6,2.6-3.3,5.2-4.9,7.9c-1.6,2.7-3.2,5.3-4.7,7.8c-1.5,2.5-2.7,4.8-3.7,6.7c-1,2-1.7,3.5-2.2,4.7
			c-0.4,1.2-0.4,1.8,0.1,1.7l0.8,0c2.5-0.9,5-2.3,7.4-4.2c2.4-1.9,4.7-4,6.9-6.4c2.2-2.4,4.3-4.9,6.4-7.6c2.1-2.7,4.1-5.2,6-7.7
			l2.1-3c0.5-0.5,1.1-0.6,1.9-0.4c0.8,0.3,1.6,0.7,2.3,1.4c0.7,0.7,1.2,1.4,1.6,2.2c0.3,0.8,0.3,1.5-0.2,2.1l0.1-0.2
			c-3.8,5.3-8.1,10.8-12.9,16.3c-4.8,5.5-9.6,10.4-14.5,14.7c-0.8,0.6-1.7,1.3-2.9,2.1c-1.1,0.8-2.4,1.5-3.7,2.2
			c-1.3,0.7-2.8,1.3-4.3,1.8c-1.5,0.5-3,0.8-4.4,0.8c-3.1,0-5.3-1.1-6.4-3.4c-1.2-2.3-1.5-5.2-1.1-8.8c0.5-2.7,1.2-5.5,2.4-8.2
			l-0.1,0.1c1.5-4.1,3.6-8.8,6.4-14.2c2.8-5.4,5.7-10.8,8.7-16.2c2-3.7,3.8-7.2,5.7-10.7c1.8-3.5,3.4-6.6,4.7-9.5L306.7,189.9z
			 M323.7,152.6c1-0.2,2.1,0.3,3.5,1.5c1.4,1.2,2.7,2.6,3.9,4.2c1.2,1.6,2.2,3.2,3,4.8c0.8,1.6,1.2,2.8,1,3.5
			c-0.8,2.4-1.7,4.4-2.7,6.2c-1,1.8-2.1,3.6-3.1,5.5c-1.1,1.9-2.1,3.8-3.2,5.8s-2.2,4.2-3.2,6.8c-1-0.2-2-0.7-3.1-1.6
			c-1.1-0.9-2.1-1.9-3-3.1c-0.9-1.2-1.7-2.4-2.2-3.6c-0.6-1.3-0.8-2.3-0.7-3.2c0.3-1.6,0.8-3.4,1.4-5.3c0.6-1.9,1.3-4,2.1-6.1
			c0.8-2.1,1.6-4.3,2.3-6.4c0.7-2.2,1.3-4.3,1.7-6.3L323.7,152.6z"/>
		<path class="st5" d="M336,188.9c1.2-0.6,2.6-0.6,4.3,0.1c1.7,0.7,3.2,1.7,4.6,3.2c1.4,1.5,2.4,3.2,3.1,5.1
			c0.7,1.9,0.6,3.8-0.1,5.6c-0.4,0.9-1.2,2.3-2.2,4.3c-1,2-2.2,4.2-3.5,6.7c-1.7,3.3-3.6,6.8-5.6,10.7c-2,3.9-4,7.5-5.8,10.9
			c-1.8,3.4-3.4,6.2-4.7,8.6c-1.3,2.3-2.1,3.6-2.3,3.9c1.3-0.3,3.4-1.7,6.3-4.4c2.8-2.6,6-5.9,9.4-9.7c3.5-3.8,7-8.1,10.7-12.6
			c3.7-4.6,7.1-9,10.2-13.3c3.1-4.3,5.8-8.1,7.9-11.6c2.2-3.5,3.4-6.1,3.8-7.8c0.3-0.5,0.9-0.2,1.6,0.8c0.8,1,1.5,2.3,2.2,3.8
			c0.7,1.5,1.2,3.1,1.7,4.7c0.4,1.6,0.4,2.7-0.1,3.2c-2.1,2.8-4.6,6.2-7.6,10.3c-3,4.1-6.4,8.3-10,12.8c-3.6,4.5-7.5,8.9-11.5,13.4
			c-4,4.4-8,8.4-11.9,12c-3.9,3.6-7.7,6.5-11.5,8.7c-3.7,2.3-7.1,3.4-10.1,3.4c-2.3,0.1-4.2-0.8-5.6-2.7c-1.4-1.9-1.9-4.7-1.4-8.4
			c0.1-1.2,0.4-2.5,0.8-4c0.4-1.5,1-3,1.8-4.6c1-2.4,2.2-5.1,3.8-8.4c1.6-3.2,3.3-6.6,5.1-10.1c1.5-2.9,3-5.9,4.5-9
			c1.5-3.1,2.9-6.1,4.2-9c1.3-2.9,2.6-5.6,3.7-8.2c1.2-2.6,2.1-4.9,2.8-6.9L336,188.9z"/>
		<path class="st5" d="M426.1,206c-0.1,0.5-0.4,0.9-0.9,1.2c-0.5,0.3-1.1,0.5-1.8,0.7c-0.7,0.1-1.5,0.2-2.2,0.3
			c-0.8,0-1.4-0.1-2-0.3c1.1,0.7,2.2,1.5,3.2,2.4c1,0.9,1.8,2,2.5,3.1c0.7,1.1,1.1,2.3,1.4,3.5c0.2,1.2,0.1,2.4-0.3,3.5
			c-0.3,0.6-0.6,1.2-1,1.9c-0.4,0.7-0.8,1.4-1.1,2.1c-0.8,1.6-1.7,3.2-2.5,5c-0.9,1.8-1.7,3.5-2.4,5.2s-1.4,3.3-1.9,4.8
			c-0.5,1.5-0.9,2.8-1,3.8c0,0.2,0,0.3-0.2,0.4c-0.1,0.1-0.2,0.2-0.3,0.3l0.8,0c2.4-0.9,4.6-2.3,6.8-4.2c2.2-1.9,4.3-4.1,6.3-6.5
			c2-2.4,4-5,5.9-7.8c1.9-2.7,3.6-5.4,5.3-7.9c0.6-0.7,1.1-1.2,1.4-1.7c0.3-0.5,0.6-1,0.9-1.6c0.3-0.4,0.9-0.5,1.8-0.4
			c0.9,0.2,1.7,0.5,2.6,1.1c0.8,0.5,1.5,1.2,2,1.9c0.5,0.7,0.5,1.4,0.1,2l-3.3,4.9l0,0.1c-3.3,4.8-6.7,9.6-10.2,14.3
			c-3.6,4.7-7.5,9-12,12.8c-0.7,0.7-1.6,1.4-2.6,2.2c-1.1,0.8-2.2,1.6-3.5,2.3c-1.3,0.7-2.7,1.3-4.2,1.8c-1.5,0.5-3.1,0.7-4.7,0.7
			c-3.8-0.2-6.6-1.5-8.2-3.8c-1.6-2.3-2.3-5.3-2.1-8.9c-3.5,3.5-7,6.5-10.6,9.1c-3.6,2.6-7.1,3.9-10.4,4.1c-3-0.2-5.5-1-7.3-2.3
			c-1.8-1.3-3.2-2.9-4.2-4.8c-0.9-1.9-1.5-3.9-1.7-6.1c-0.2-2.2-0.2-4.3,0-6.2c0.3-1.8,0.6-3.2,0.9-4.4c0.7-3,1.9-6.3,3.6-9.9
			c1.7-3.6,3.8-7.2,6.2-10.8c2.4-3.6,5.1-7.1,8.1-10.5c3-3.4,6.1-6.4,9.5-9.1c3.3-2.7,6.8-4.8,10.3-6.5c3.5-1.6,7-2.5,10.5-2.6
			c1,0,2,0,3,0.1c1,0.1,2,0.3,3.1,0.6c1.9,0.6,3.4,1.5,4.5,2.9c1,1.4,1.8,3,2.2,4.8c0.4,1.9,0.6,3.9,0.6,6
			C426.8,201.8,426.5,203.9,426.1,206z M412.1,206.5c0.8-0.4,1.7-0.5,2.8-0.3c1.1,0.2,2.2,0.6,3.3,1.2c-0.4-0.4-0.5-0.8-0.4-1.3
			c0.1-0.2,0.1-0.5,0-0.8c-0.1-0.3,0-0.6,0-1c0-0.8,0.1-1.6,0-2.5c0-0.9-0.2-1.7-0.4-2.4c-0.3-0.8-0.7-1.4-1.3-1.8
			c-0.6-0.5-1.3-0.7-2.3-0.8c-3,0-6,1.2-9,3.5c-3,2.3-5.9,5.2-8.7,8.6c-2.8,3.5-5.3,7.1-7.5,11.1c-2.2,3.9-4,7.5-5.2,10.6
			c-0.4,0.9-0.7,2-1.1,3.3c-0.4,1.3-0.6,2.6-0.7,3.9c-0.1,0.9-0.2,1.7-0.2,2.5c0,0.8,0.2,1.5,0.6,2c0.4,0.5,0.9,0.9,1.7,1
			c0.7,0.1,1.7,0,3-0.3c1.2-0.4,2.7-1.3,4.5-2.9c1.8-1.6,3.7-3.4,5.6-5.5c2-2.1,3.9-4.4,5.8-6.7c1.9-2.4,3.5-4.5,4.8-6.4
			c1.1-2.4,2.1-4.8,3.1-7.1c0.9-2.3,1.5-4.3,1.9-5.9L412.1,206.5z"/>
	</g>
	<g>
		<path class="st5" d="M266.5,298.5c1-1.2,2.2-1.8,3.5-1.8c1.4,0,2.7,0.3,4,1c1.3,0.7,2.6,1.8,3.8,3.1c1.2,1.3,2.2,2.7,3,4.2
			c0.8,1.5,1.3,3.1,1.6,4.6c0.3,1.6,0.1,3-0.5,4.2c-3,5.6-6.5,11.8-10.5,18.4c-4,6.7-8.3,13.6-12.7,20.6c-4.5,7.1-9,14.1-13.5,21.1
			c-4.5,7-8.8,13.5-12.8,19.6c-3.3,5.1-6.4,9.8-9.2,14.2c-2.9,4.4-5.4,8.3-7.5,11.6c-2.1,3.3-3.8,6.1-5,8.2c-1.2,2.1-1.9,3.4-2,3.8
			l0.1,0.1c8.6-5.8,17.2-12.4,25.8-19.7c8.6-7.4,17.1-15.2,25.4-23.6c8.3-8.4,16.4-17.2,24.3-26.3c7.8-9.2,15.3-18.6,22.2-28.1
			c7-9.5,13.4-19.1,19.2-28.8c5.9-9.7,11-19.2,15.3-28.6c0.7-1.1,1.8-1.1,3.4-0.2c1.5,0.9,3,2.3,4.6,4c1.5,1.8,2.7,3.6,3.7,5.6
			c1,2,1.2,3.5,0.8,4.5c-3.2,6.3-7.4,13.3-12.6,21c-5.1,7.7-11,15.7-17.4,24c-6.5,8.3-13.4,16.7-20.8,25.3
			c-7.4,8.6-14.9,16.9-22.6,24.9c-7.7,8-15.3,15.6-22.9,22.7c-7.6,7.1-14.8,13.4-21.6,18.8c-6.8,5.4-13.1,9.8-18.7,13.1
			c-5.7,3.3-10.4,5.2-14.2,5.8c-1.9,0-3.6-0.5-5.3-1.4c-1.7-0.9-3.1-2.2-4.3-3.8c-1.2-1.6-2.1-3.4-2.7-5.4c-0.6-2-0.8-4.1-0.4-6.4
			l2.6-5.7c-4.9,4.9-9.6,9.1-14.2,12.6c-4.6,3.5-8.7,5.7-12.3,6.8l0.1-0.1c-2.7,0.7-5.2,1.2-7.5,1.2c-3.4,0.1-6.2-0.4-8.4-1.7
			c-2.2-1.2-4-2.9-5.2-5.1c-1.2-2.2-2.1-4.7-2.4-7.6c-0.4-2.9-0.4-6,0.1-9.3c0.1-1.4,0.3-2.8,0.6-4.1c0.3-1.3,0.6-2.6,1.1-4
			c1.5-4.3,3.6-9.3,6.1-14.8c2.6-5.5,5.5-11.3,8.9-17.5c3.4-6.1,7.1-12.5,11.2-19.2c4.1-6.6,8.3-13.4,12.8-20.2
			c4.5-6.8,9.1-13.6,13.8-20.3c4.7-6.7,9.4-13.2,14.2-19.5c-6.7,1-13.4,2.8-20.3,5.5c-6.8,2.7-13.4,5.9-19.7,9.7
			c-6.3,3.8-12.3,7.9-17.8,12.5c-5.6,4.6-10.5,9.2-14.7,13.8c-4.2,4.6-7.6,9.2-10.2,13.6c-2.6,4.4-4,8.4-4.3,12l-0.9,2
			c-0.6,0.8-1.9,1-3.8,0.6c-1.9-0.4-3.8-1.3-5.7-2.7c-1.9-1.4-3.5-3.3-4.7-5.5c-1.2-2.2-1.4-4.9-0.6-7.9c2.8-7.7,6.7-14.7,11.6-21.1
			c4.9-6.4,10.4-12.2,16.4-17.5c6-5.2,12.5-9.8,19.3-13.8c6.8-4,13.6-7.4,20.2-10.1c6.7-2.7,13.1-4.8,19.3-6.3
			c6.2-1.5,11.6-2.3,16.4-2.5c1.2,0,2.4-0.1,3.5-0.1c1.1,0,2.1,0,3.1,0.2c1.8,0.2,3.5,0.9,5.2,2.1c1.7,1.2,3.1,2.6,4.4,4.2
			c1.3,1.6,2.3,3.4,3,5.1c0.7,1.8,1,3.4,0.7,4.9c-0.2,1-1,2.7-2.1,5c-1.2,2.3-2.7,5-4.7,8.2c-1.9,3.2-4.1,6.7-6.6,10.6
			c-2.4,3.9-5,7.9-7.6,12c-3.3,5.1-6.7,10.4-10.4,16.1c-3.6,5.6-7.2,11.3-10.8,17c-3.5,5.7-6.9,11.4-10.1,17
			c-3.2,5.6-6.1,10.8-8.7,15.8c-2.6,4.9-4.7,9.5-6.4,13.6c-1.7,4.1-2.7,7.6-3.1,10.4c-0.2,1.8,0.1,3.1,0.9,4
			c0.8,0.9,2.3,1.1,4.4,0.5c3.3-1,7.1-3.3,11.3-6.8c4.2-3.5,8.6-7.7,13.1-12.7c4.5-5,9-10.4,13.7-16.2c4.6-5.8,9-11.6,13.1-17.3
			c4.1-5.7,7.9-11.1,11.4-16.1c3.5-5,6.3-9.2,8.5-12.6l0.5-0.6c4.3-6.6,8.4-13.3,12.5-20.1c4.1-6.8,8.2-13.8,12.2-21.2
			c0-0.1,0.1-0.4,0.4-0.9c0.3-0.5,0.5-1.1,0.8-1.7c0.3-0.6,0.5-1.2,0.8-1.7c0.3-0.5,0.4-0.9,0.4-1.1L266.5,298.5z"/>
		<path class="st5" d="M346.9,369.7c-4.5,7.4-10,13.6-16.3,18.6c-6.3,5-13.2,8.8-20.6,11.4c-0.2,2.2,0,4.2,0.6,6.1
			c0.6,1.9,1.8,3,3.7,3.4L314,409c1.5,0.3,3.4,0.2,5.6-0.6c2.2-0.7,4.5-1.9,7.1-3.7c2.5-1.7,5.2-4,8-6.7c2.8-2.7,5.6-6,8.3-9.7
			c1.5-2,2.8-4,4.2-6.1c1.3-2.1,2.6-4.1,3.8-6c0.8-1.1,1.8-1.7,2.9-1.8c1.1-0.1,2,0.1,2.8,0.7c0.8,0.6,1.3,1.4,1.5,2.5
			c0.2,1.1-0.1,2.3-1,3.7l-2.8,4.4c-2.4,3.7-5.4,7.8-8.9,12.3c-3.5,4.5-7.5,8.8-12,13.1c-2.6,2.3-5.2,4.2-7.7,5.5
			c-2.5,1.3-4.8,2.3-7,3s-4.1,1.1-5.8,1.3c-1.7,0.2-3.1,0.3-4,0.3c-6.2,0.2-10.8-1.4-13.7-4.9c-2.9-3.5-4-8.4-3.5-14.6
			c0.5-5.5,2.1-10.8,4.7-16.1c2.6-5.3,6.3-11.1,11.1-17.3c1.7-2.1,3.8-4.3,6.4-6.6c2.6-2.4,5.4-4.6,8.4-6.6c3.1-2,6.3-3.7,9.6-5
			c3.4-1.3,6.6-2,9.7-2c3.3,0,5.8,1,7.6,3c1.8,2.1,2.4,4.9,1.9,8.5c-0.2,1.6-0.6,3.2-1.3,4.9c-0.7,1.7-1.7,3.4-3,5.3L346.9,369.7z
			 M340.3,360.1c-2.9,0.7-5.7,2-8.4,4.1c-2.7,2.1-5.3,4.5-7.7,7.4c-2.4,2.8-4.6,5.8-6.5,8.9c-2,3.2-3.6,6.1-4.9,8.9
			c5.6-2.5,10.8-5.8,15.5-10c4.7-4.1,8.7-9,12-14.6l0,0.1c0.5-0.7,0.8-1.3,1-2c0.2-0.6,0.3-1.2,0.5-1.7
			C341.9,360.1,341.4,359.7,340.3,360.1z"/>
		<path class="st5" d="M396.4,367.9c-4.5,7.4-10,13.6-16.3,18.6c-6.3,5-13.2,8.8-20.6,11.4c-0.2,2.2,0,4.2,0.6,6.1
			c0.6,1.9,1.8,3,3.7,3.4l-0.2-0.1c1.5,0.3,3.4,0.2,5.6-0.6c2.2-0.7,4.5-1.9,7.1-3.7c2.5-1.7,5.2-4,8-6.7c2.8-2.7,5.6-6,8.3-9.7
			c1.5-2,2.8-4,4.2-6.1c1.3-2.1,2.6-4.1,3.8-6c0.8-1.1,1.8-1.7,2.9-1.8c1.1-0.1,2,0.1,2.8,0.7c0.8,0.6,1.3,1.4,1.5,2.5
			c0.2,1.1-0.1,2.3-1,3.7l-2.8,4.4c-2.4,3.7-5.4,7.8-8.9,12.3c-3.5,4.5-7.5,8.8-12,13.1c-2.6,2.3-5.2,4.2-7.7,5.5
			c-2.5,1.3-4.8,2.3-7,3c-2.1,0.7-4.1,1.1-5.8,1.3c-1.7,0.2-3.1,0.3-4,0.3c-6.2,0.2-10.8-1.4-13.7-4.9c-2.9-3.5-4-8.4-3.5-14.6
			c0.5-5.5,2.1-10.8,4.7-16.1c2.6-5.3,6.3-11.1,11.1-17.3c1.7-2.1,3.8-4.3,6.4-6.6c2.6-2.4,5.4-4.6,8.4-6.6c3.1-2,6.3-3.7,9.6-5
			c3.4-1.3,6.6-2,9.7-2c3.3,0,5.8,1,7.6,3c1.8,2.1,2.4,4.9,1.9,8.5c-0.2,1.6-0.6,3.2-1.3,4.9c-0.7,1.7-1.7,3.4-3,5.3L396.4,367.9z
			 M389.8,358.3c-2.9,0.7-5.7,2-8.4,4.1c-2.7,2.1-5.3,4.5-7.7,7.4c-2.4,2.8-4.6,5.8-6.5,8.9c-2,3.2-3.6,6.1-4.9,8.9
			c5.6-2.5,10.8-5.8,15.5-10c4.7-4.1,8.7-9,12-14.6l0,0.1c0.5-0.7,0.8-1.3,1-2c0.2-0.6,0.3-1.2,0.5-1.7
			C391.4,358.3,390.9,358,389.8,358.3z"/>
		<path class="st5" d="M463.6,379.6c-2.6,3.8-5.5,7.8-8.6,12.2c-3.1,4.4-6.5,8.4-10.1,12.1c-3.6,3.7-7.4,6.8-11.5,9.3
			c-4.1,2.5-8.4,3.8-12.8,4c-4.4,0-8-1.4-10.7-4.2c-2.7-2.8-4.5-6.3-5.5-10.6c-0.7,2-1.4,4-2,6c-0.6,2-1.1,4-1.5,6
			c-0.3,0.9-1.1,1.3-2.5,1.3c-1.4,0-2.8-0.4-4.3-1c-1.5-0.6-2.9-1.4-4-2.4c-1.2-1-1.8-2-1.7-3.1c0.9-4.9,2.2-9.9,4-14.9
			c1.8-5,3.9-10.1,6.3-15.1c2.4-5,5-10.1,7.8-15.2c2.8-5.1,5.6-10.1,8.4-15.1l4.5-7.8c1.7-3.1,3.4-6.3,5.1-9.5
			c1.7-3.2,3.3-6.4,4.8-9.5c1.5-3.1,2.9-6.1,4.2-9c1.3-2.9,2.4-5.5,3.3-8c1.3-0.7,2.8-0.7,4.5-0.1c1.7,0.6,3.3,1.6,4.8,3
			s2.6,3,3.4,4.9c0.8,1.9,0.8,3.7,0.2,5.5c-0.5,1.2-1.4,3-2.6,5.3c-1.2,2.3-2.7,4.8-4.2,7.7c-1.6,2.8-3.3,5.8-5,8.8
			c-1.8,3.1-3.5,6-5.2,8.8l-1.9,3.2c2.7-2,5.3-3.7,8-5.1c2.7-1.4,5.4-2.2,8.1-2.6c1.1,0,2.3,0.4,3.5,1.4c1.2,1,2.2,2.1,3.1,3.6
			c0.8,1.4,1.4,3,1.7,4.6c0.3,1.7,0.1,3.2-0.6,4.5c-1.2,2.8-2.6,5.6-4.4,8.4c-1.7,2.8-3.4,5.5-4.9,7.9c-1.5,2.4-2.9,4.7-4.3,7.1
			c-1.3,2.3-2.4,5.2-3.2,8.7c-2.6-1-4.7-2.2-6.3-3.4c-1.6-1.3-2.9-2.6-3.7-4c-0.9-1.4-1.5-2.7-1.7-4c-0.2-1.3-0.3-2.6-0.2-3.8
			c0.2-1.3,0.5-2.4,1-3.4c0.4-1,0.9-1.8,1.2-2.3c1.8-2.4,3.4-4.5,4.6-6.3c1.2-1.8,2.2-3.3,3-4.4c-1.5,2-3.3,4-5.7,6
			c-3.4,3-6.6,6-9.4,9c-2,2.9-3.5,5.5-4.5,8c-1,2.5-1.7,4.7-2,6.6c-0.3,2.3-0.2,4.4,0.3,6.1c0.5,1.7,1.4,3.2,2.4,4.4
			c1.1,1.2,2.4,2.1,3.8,2.6c1.5,0.5,2.9,0.8,4.5,0.7c3.4-0.2,6.6-1.3,9.8-3.3c3.2-2,6.2-4.4,9-7.3c2.9-2.9,5.5-6,8-9.3
			c2.4-3.3,4.6-6.4,6.5-9.3c0.4-0.4,1-0.5,1.9-0.3c0.9,0.2,1.7,0.6,2.5,1.1c0.8,0.5,1.4,1.2,1.9,1.9c0.5,0.7,0.5,1.4,0,2l0.1-0.2
			L463.6,379.6z"/>
	</g>
	<g class="st3">
		<g class="st6">
			<g>
				<path d="M488.9,274.3L488.9,274.3l-2.4,2.5l-1-1.5l2.9-3.1l1.9-0.6l5.4,16.4l-2.1,0.7L488.9,274.3z"/>
				<path d="M505.5,283c0.5-0.1,1-0.3,1.7-0.7c1.2-0.6,2.3-1.5,2.9-2.7c0.7-1.3,1-3,0.7-5.1l-0.1,0c-0.6,1.4-1.6,2.5-3.3,3
					c-2.9,1-5.6-0.6-6.5-3.4c-1-3.1,0.3-6.5,3.7-7.7c3.3-1.1,6.3,0.9,7.7,5.1c1.2,3.6,0.8,6.5-0.3,8.6c-0.9,1.6-2.3,3-4,3.8
					c-0.7,0.4-1.5,0.7-2,0.8L505.5,283z M503.2,273.3c0.7,2,2.4,3.1,4.3,2.4c1.5-0.5,2.4-1.6,2.7-2.8c0-0.2,0-0.5-0.1-0.9
					c-0.9-2.8-2.7-4.6-5-3.8C503.3,268.9,502.5,271,503.2,273.3z"/>
			</g>
		</g>
		<g class="st6">
			<g>
				<path d="M493.1,268l-8.3,2.8l-1-3l20.3-6.7l1,3l-8.4,2.8l8.1,24.4l-3.6,1.2L493.1,268z"/>
			</g>
		</g>
	</g>
</g>
<g id="Layer_2">
</g>
</svg>
