<?xml version="1.0" encoding="utf-8"?>
<!-- Generator: Adobe Illustrator 24.2.1, SVG Export Plug-In . SVG Version: 6.00 Build 0)  -->
<svg version="1.1" id="Layer_1" xmlns="http://www.w3.org/2000/svg" xmlns:xlink="http://www.w3.org/1999/xlink" x="0px" y="0px"
	 viewBox="0 0 400 400" style="enable-background:new 0 0 400 400;" xml:space="preserve">
<style type="text/css">
	.st0{fill:#D16361;}
</style>
<path class="st0" d="M250.49,88.49c-19.29,0-37.52,8.36-50.54,22.8c-13.02-14.44-31.25-22.8-50.54-22.8
	c-38.25,0-69.36,32.43-69.36,72.29c0,34.45,19.67,70.37,58.48,106.76c28.29,26.53,56.18,43.14,57.35,43.83
	c1.26,0.74,2.66,1.11,4.07,1.11c1.41,0,2.82-0.37,4.07-1.11c1.17-0.69,29.06-17.3,57.35-43.83c38.8-36.39,58.48-72.31,58.48-106.76
	C319.86,120.92,288.74,88.49,250.49,88.49z"/>
</svg>
