<?xml version="1.0" encoding="utf-8"?>
<!-- Generator: Adobe Illustrator 24.2.1, SVG Export Plug-In . SVG Version: 6.00 Build 0)  -->
<svg version="1.1" id="Layer_1" xmlns="http://www.w3.org/2000/svg" xmlns:xlink="http://www.w3.org/1999/xlink" x="0px" y="0px"
	 viewBox="0 0 400 400" style="enable-background:new 0 0 400 400;" xml:space="preserve">
<style type="text/css">
	.st0{fill:#131B23;}
</style>
<path class="st0" d="M203.88,77.68c-2.43-1.37-5.41-1.37-7.84,0c-4.58,2.57-112.07,63.88-112.07,138.82
	c0,36.94,30.15,66.99,67.22,66.99c7.46,0,14.72-1.19,21.59-3.51c-5.45,11.4-12.65,21.98-21.31,31.2c-2.18,2.33-2.78,5.73-1.51,8.65
	s4.15,4.82,7.34,4.82h85.94c3.19,0,6.07-1.89,7.34-4.82c1.27-2.93,0.68-6.33-1.51-8.65c-8.6-9.16-15.76-19.65-21.2-30.97
	c6.66,2.17,13.67,3.29,20.85,3.29c37.07,0,67.22-30.05,67.22-66.99C315.94,141.56,208.45,80.26,203.88,77.68z M248.72,267.5
	c-11.27,0-21.98-3.6-30.96-10.42c-2.75-2.08-6.52-2.17-9.36-0.22c-2.84,1.95-4.12,5.51-3.16,8.82c4.46,15.39,11.63,30,21.04,42.98
	h-52.02c9.54-13.16,16.77-27.98,21.21-43.61c0.95-3.33-0.36-6.9-3.24-8.83s-6.67-1.79-9.4,0.35c-9.1,7.15-20.05,10.93-31.65,10.93
	c-28.24,0-51.22-22.87-51.22-50.99c0-33.71,27.79-65.61,51.11-86.44c20.14-17.99,40.54-31.05,48.88-36.12
	c8.35,5.07,28.75,18.13,48.88,36.12c42.24,37.74,51.1,67.83,51.1,86.44C299.94,244.62,276.97,267.5,248.72,267.5z"/>
</svg>
