<?xml version="1.0" encoding="utf-8"?>
<!-- Generator: Adobe Illustrator 24.2.1, SVG Export Plug-In . SVG Version: 6.00 Build 0)  -->
<svg version="1.1" id="Layer_1" xmlns="http://www.w3.org/2000/svg" xmlns:xlink="http://www.w3.org/1999/xlink" x="0px" y="0px"
	 viewBox="0 0 400 400" style="enable-background:new 0 0 400 400;" xml:space="preserve">
<style type="text/css">
	.st0{fill:#131B23;}
</style>
<path class="st0" d="M203.88,77.68c-2.43-1.37-5.41-1.37-7.84,0c-4.58,2.57-112.07,63.88-112.07,138.82
	c0,36.94,30.15,66.99,67.22,66.99c7.46,0,14.72-1.19,21.59-3.51c-5.45,11.4-12.65,21.98-21.31,31.2c-2.18,2.33-2.78,5.73-1.51,8.65
	s4.15,4.82,7.34,4.82h85.94c3.19,0,6.07-1.89,7.34-4.82c1.27-2.93,0.68-6.33-1.51-8.65c-8.6-9.16-15.76-19.65-21.2-30.97
	c6.66,2.17,13.67,3.29,20.85,3.29c37.07,0,67.22-30.05,67.22-66.99C315.94,141.56,208.45,80.26,203.88,77.68z"/>
</svg>
